<?xml version="1.0" encoding="UTF-8"?>
<svg version="1.1" xmlns="http://www.w3.org/2000/svg" width="256" height="256">
<path d="M0 0 C63.03 0 126.06 0 191 0 C192.65 2.97 194.3 5.94 196 9 C196.66 9 197.32 9 198 9 C199.70993434 10.6222454 201.37347684 12.29413425 203 14 C203.495 14.47824219 203.99 14.95648438 204.5 15.44921875 C206.04213691 17.04356342 207.29189399 18.68371054 208.5625 20.5 C208.97628906 21.0878125 209.39007813 21.675625 209.81640625 22.28125 C210.89255569 23.84397526 211.94749999 25.42124999 213 27 C213.33 27 213.66 27 214 27 C214.33 29.97 214.66 32.94 215 36 C216.0725 36.020625 217.145 36.04125 218.25 36.0625 C222 37 222 37 224.25 40.1875 C224.85361451 41.44882655 225.43387014 42.7214101 226 44 C226.5057959 44.84167725 227.0115918 45.68335449 227.53271484 46.55053711 C229.4015875 50.94409813 229.43253046 54.55328737 229.3984375 59.2734375 C229.40274277 60.59729965 229.40274277 60.59729965 229.40713501 61.94790649 C229.4091697 63.80870203 229.40368159 65.66951924 229.39111328 67.53027344 C229.37508939 70.35921787 229.39096225 73.18672541 229.41015625 76.015625 C229.40817296 77.83073229 229.40432752 79.64583869 229.3984375 81.4609375 C229.40451019 82.29764984 229.41058289 83.13436218 229.4168396 83.99642944 C229.35010966 89.64786549 228.2371708 93.80516516 226 99 C225.71125 99.78375 225.4225 100.5675 225.125 101.375 C222.88972464 104.60373107 219.35714369 104.9326144 215.6875 105.625 C214.800625 105.74875 213.91375 105.8725 213 106 C213 106.66 213 107.32 213 108 C212.17062613 108.00219984 212.17062613 108.00219984 211.32449722 108.00444412 C197.87047676 108.04149669 184.41671166 108.10074341 170.96289444 108.18390274 C164.45669786 108.22344611 157.95063803 108.25560103 151.44433594 108.27099609 C145.16776496 108.28611732 138.89156974 108.32048252 132.61516571 108.36830902 C130.21817029 108.38316961 127.82112123 108.39104368 125.4240799 108.39188385 C122.07169827 108.39424112 118.72036563 108.42122208 115.36816406 108.45410156 C114.37266541 108.4490712 113.37716675 108.44404083 112.35150146 108.43885803 C107.00006832 108.4577964 107.00006832 108.4577964 102.38037109 110.90246582 C100.8077236 113.29217239 100.52833949 114.49188231 100.609375 117.328125 C100.62871094 118.52695313 100.62871094 118.52695313 100.6484375 119.75 C100.68195313 120.575 100.71546875 121.4 100.75 122.25 C100.76804687 123.09046875 100.78609375 123.9309375 100.8046875 124.796875 C100.85169202 126.86507395 100.92343276 128.93268441 101 131 C101.61875 131.12375 102.2375 131.2475 102.875 131.375 C105 132 105 132 107 134 C107.33870968 140.32258065 107.33870968 140.32258065 106 143 C106.41121094 143.35191406 106.82242188 143.70382813 107.24609375 144.06640625 C109.6727038 146.74162223 111.3168301 149.79918064 113.0625 152.9375 C113.41376953 153.55818359 113.76503906 154.17886719 114.12695312 154.81835938 C115.09632468 156.5390397 116.04877797 158.26922022 117 160 C117.36228195 160.56038467 117.7245639 161.12076935 118.0978241 161.69813538 C119.44385593 165.13248011 119.28631682 168.54177753 119.2746582 172.17749023 C119.27976913 172.99909637 119.28488007 173.82070251 119.29014587 174.66720581 C119.30403727 177.38107605 119.30308548 180.0946922 119.30078125 182.80859375 C119.30466838 184.69662063 119.30900309 186.58464664 119.31376648 188.47267151 C119.32122768 192.42948237 119.32093809 196.38620401 119.31567383 200.34301758 C119.30987881 205.4117271 119.32681147 210.48007125 119.3500185 215.54872036 C119.36475539 219.44780103 119.36562761 223.3467937 119.36250877 227.24589729 C119.36302199 229.11459133 119.36825981 230.9832903 119.37832069 232.85195732 C119.39066716 235.46591768 119.38390437 238.07916614 119.37231445 240.69311523 C119.37995819 241.46366745 119.38760193 242.23421967 119.39547729 243.02812195 C119.33921595 248.77348394 118.02317036 251.97682964 114 256 C111.26209684 256.24895172 108.62904644 256.37649325 105.88671875 256.40625 C105.08015335 256.41765015 104.27358795 256.42905029 103.44258118 256.4407959 C101.73366549 256.45970346 100.02467675 256.47276692 98.31567383 256.48046875 C95.70719104 256.49985367 93.10188089 256.56185978 90.49414062 256.625 C88.83335204 256.63806359 87.17254092 256.64856316 85.51171875 256.65625 C84.73446945 256.6809436 83.95722015 256.70563721 83.15641785 256.7310791 C79.07295039 256.69768407 77.31424222 256.293661 74.29862976 253.47555542 C71.46626954 249.80832395 71.26670087 246.1890106 71.28955078 241.67822266 C71.27436401 240.86424011 71.25917725 240.05025757 71.24353027 239.21160889 C71.20125065 236.52866851 71.19623469 233.84731504 71.1953125 231.1640625 C71.1817675 229.28282028 71.16733842 227.40158424 71.15206909 225.52035522 C71.126661 221.57444436 71.12136874 217.62908563 71.12841797 213.68310547 C71.13448139 208.66825447 71.07689356 203.65645681 71.00175667 198.64225197 C70.95322145 194.75203877 70.94673408 190.86253706 70.9514122 186.97205734 C70.94740279 185.1263284 70.92921897 183.28056586 70.89560318 181.4351387 C70.67311266 167.81516561 73.45182595 159.29123317 81 148 C81.66851632 146.6675931 82.33587264 145.33459997 83 144 C83.66 143.34 84.32 142.68 85 142 C84.67 141.01 84.34 140.02 84 139 C83.96045766 136.66700175 83.95598268 134.33291811 84 132 C85.98 131.67 87.96 131.34 90 131 C90 125.06 90 119.12 90 113 C90.66 113 91.32 113 92 113 C92.25394531 112.48050781 92.50789063 111.96101563 92.76953125 111.42578125 C93.48184371 109.98248148 94.20364615 108.54383649 94.93359375 107.109375 C95.77674652 105.44160029 96.58274463 103.75504557 97.375 102.0625 C99 100 99 100 101.43362427 99.38392639 C106.19226458 98.8716507 110.90377378 98.82227208 115.68701172 98.79467773 C116.75102707 98.78477814 117.81504242 98.77487854 118.91130066 98.76467896 C122.41740721 98.73316953 125.92352729 98.70834828 129.4296875 98.68359375 C131.86492255 98.66301511 134.30015409 98.6420184 136.73538208 98.62062073 C143.13697471 98.56549409 149.53859907 98.51604335 155.94024658 98.46777344 C162.47581803 98.41748967 169.01134354 98.36183952 175.546875 98.30664062 C188.36454381 98.19917413 201.18225187 98.09752138 214 98 C214 97.34 214 96.68 214 96 C214.78375 95.9175 215.5675 95.835 216.375 95.75 C219.09404655 95.28553975 219.09404655 95.28553975 220.14788818 93.2147522 C221.03731289 90.90301882 221.25329219 89.27861553 221.25878906 86.81396484 C221.26824554 85.59282486 221.26824554 85.59282486 221.27789307 84.34701538 C221.2738446 83.47710968 221.26979614 82.60720398 221.265625 81.7109375 C221.26849518 80.36148544 221.26849518 80.36148544 221.27142334 78.98477173 C221.27278234 77.08685017 221.26910583 75.18891924 221.26074219 73.29101562 C221.25001361 70.37869551 221.26065994 67.46698876 221.2734375 64.5546875 C221.27211635 62.71093613 221.26955486 60.86718515 221.265625 59.0234375 C221.27169769 57.71250626 221.27169769 57.71250626 221.27789307 56.37509155 C221.4646848 51.70589234 221.4646848 51.70589234 219 48 C217.01612292 46.96838392 215.01723344 45.96476382 213 45 C212.67 45.66 212.34 46.32 212 47 C210.7934375 48.175625 210.7934375 48.175625 209.5625 49.375 C206.97138099 51.74390001 206.97138099 51.74390001 205.9375 54.25 C205 56 205 56 202.9375 56.625 C202.298125 56.74875 201.65875 56.8725 201 57 C200.67 57.66 200.34 58.32 200 59 C199.01 59 198.02 59 197 59 C196.71125 59.9075 196.4225 60.815 196.125 61.75 C195.75375 62.8225 195.3825 63.895 195 65 C194.6596875 66.051875 194.6596875 66.051875 194.3125 67.125 C192.21188221 70.12588256 189.324454 71.64839245 186 73 C182.78626529 73.53453658 179.64452771 73.50769801 176.39282227 73.45410156 C174.98677483 73.45497772 174.98677483 73.45497772 173.55232239 73.45587158 C170.47329875 73.45309877 167.39525947 73.42204443 164.31640625 73.390625 C162.17407256 73.38315977 160.03173201 73.37746817 157.88938904 73.37347412 C152.26519748 73.35824013 146.64142256 73.31897725 141.01739502 73.2746582 C135.27272171 73.23365744 129.52798074 73.21545283 123.78320312 73.1953125 C112.52195289 73.15248111 101.26101116 73.08425661 90 73 C90 77.62 90 82.24 90 87 C89.34 87 88.68 87 88 87 C86.50475822 89.2727675 85.21600285 91.5679943 84 94 C80.04 94 76.08 94 72 94 C70.68 91.36 69.36 88.72 68 86 C67.34 86 66.68 86 66 86 C66 81.71 66 77.42 66 73 C63.69 73 61.38 73 59 73 C59 77.29 59 81.58 59 86 C58.34 86 57.68 86 57 86 C56.566875 86.928125 56.13375 87.85625 55.6875 88.8125 C53.20327869 93.50491803 53.20327869 93.50491803 51 95 C47.3125 95.6875 47.3125 95.6875 44 96 C43.97421875 96.92941406 43.9484375 97.85882813 43.921875 98.81640625 C43.3518579 111.24018808 43.3518579 111.24018808 39 117 C38.62617187 117.54269531 38.25234375 118.08539063 37.8671875 118.64453125 C34.8607395 120.82703639 31.57431573 120.51271998 28 120.5 C27.27554688 120.52835937 26.55109375 120.55671875 25.8046875 120.5859375 C23.6875 120.59375 23.6875 120.59375 20 120 C18.09765625 117.59765625 18.09765625 117.59765625 17 115 C16.484375 114.319375 15.96875 113.63875 15.4375 112.9375 C14.023874 111.032178 12.99700267 109.14739037 12 107 C11.67 107 11.34 107 11 107 C11 96.11 11 85.22 11 74 C8.20883241 73.01828487 8.20883241 73.01828487 6.125 72.5625 C-0.51748252 70.8041958 -0.51748252 70.8041958 -2.125 68.125 C-2.41375 67.42375 -2.7025 66.7225 -3 66 C-4.9809932 63.06388508 -7.00210866 61.05685606 -9.875 59 C-10.57496094 58.48566406 -11.27492188 57.97132812 -11.99609375 57.44140625 C-13.6352967 56.26233044 -15.28495283 55.09779907 -16.9375 53.9375 C-19.38947789 51.63412683 -19.65417012 50.28538389 -20 47 C-20.33 46.34 -20.66 45.68 -21 45 C-21.23791118 41.90155671 -21.18519028 38.79407872 -21.1875 35.6875 C-21.19974609 34.83220703 -21.21199219 33.97691406 -21.22460938 33.09570312 C-21.23505009 28.60271592 -21.11324107 25.07076965 -19 21 C-18.7215625 20.30132813 -18.443125 19.60265625 -18.15625 18.8828125 C-16.65016032 16.43032863 -14.93513038 15.38509709 -12.5 13.875 C-6.72208491 10.25442334 -3.07373044 6.14746088 0 0 Z M7 6 C7 6.33 7 6.66 7 7 C65.41 7 123.82 7 184 7 C184 6.67 184 6.34 184 6 C125.59 6 67.18 6 7 6 Z M2.07137489 8.88136292 C0.78647173 11.42225081 0.63744753 13.10988089 0.65942383 15.95214844 C0.65965042 16.93286316 0.65987701 17.91357788 0.66011047 18.92401123 C0.67559433 19.97518127 0.69107819 21.02635132 0.70703125 22.109375 C0.71127609 23.19132141 0.71552094 24.27326782 0.71989441 25.38800049 C0.73668155 28.8422539 0.77433473 32.29592304 0.8125 35.75 C0.82754675 38.09243949 0.84123517 40.43488813 0.85351562 42.77734375 C0.88658519 48.51842838 0.93678534 54.25917245 1 60 C2.98 60.66 4.96 61.32 7 62 C7 62.99 7 63.98 7 65 C65.08 65 123.16 65 183 65 C183.33 64.34 183.66 63.68 184 63 C184.639375 62.855625 185.27875 62.71125 185.9375 62.5625 C188.38210855 62.13834965 188.38210855 62.13834965 190 59 C190.30904622 56.82838084 190.30904622 56.82838084 190.2746582 54.40844727 C190.28419022 53.48060928 190.29372223 52.5527713 190.30354309 51.59681702 C190.30263168 50.59678146 190.30172028 49.59674591 190.30078125 48.56640625 C190.30720894 47.02218239 190.30720894 47.02218239 190.31376648 45.44676208 C190.31951135 43.26879614 190.32000889 41.090811 190.31567383 38.9128418 C190.31251557 35.5789315 190.33596573 32.24590981 190.36132812 28.91210938 C190.36360124 26.79687612 190.36430456 24.68164048 190.36328125 22.56640625 C190.37709587 21.06938927 190.37709587 21.06938927 190.39118958 19.54212952 C190.38496078 18.61113937 190.37873199 17.68014923 190.37231445 16.72094727 C190.37294388 15.90392838 190.3735733 15.08690948 190.3742218 14.24513245 C189.90885685 11.45318941 188.92419131 10.04818013 187 8 C186.34 8 185.68 8 185 8 C182.63606073 7.97933359 180.27214066 7.95758954 177.90821838 7.93511963 C176.37147548 7.92075352 174.8347323 7.90641691 173.29798889 7.8921051 C172.47266726 7.88441164 171.64734562 7.87671818 170.79701424 7.86879158 C151.92907181 7.69359431 133.06100507 7.54096079 114.19276524 7.40159988 C103.27771952 7.32043682 92.36283093 7.23171829 81.44799805 7.12548828 C71.93071085 7.03288035 62.4134299 6.95429187 52.8958897 6.89267898 C47.85593734 6.85955722 42.81626483 6.81931479 37.77652168 6.7622757 C33.03815297 6.70886502 28.3000208 6.67414325 23.56139755 6.65397072 C21.8194237 6.64322069 20.0774772 6.62554735 18.33564949 6.60055351 C15.96303463 6.56752749 13.59157913 6.55908007 11.21876526 6.5569458 C10.17752694 6.53363233 10.17752694 6.53363233 9.11525351 6.50984788 C5.92845065 6.53232686 4.39968173 6.61011272 2.07137489 8.88136292 Z M-7 20 C-8.40912096 22.81824192 -8.11183553 25.17251282 -8.09765625 28.3203125 C-8.09443359 29.57714844 -8.09121094 30.83398438 -8.08789062 32.12890625 C-8.07951172 33.44761719 -8.07113281 34.76632813 -8.0625 36.125 C-8.05748489 37.46484211 -8.05292201 38.804686 -8.04882812 40.14453125 C-8.03701086 43.42973206 -8.02053617 46.71484397 -8 50 C-7.34 50 -6.68 50 -6 50 C-6 40.1 -6 30.2 -6 20 C-6.33 20 -6.66 20 -7 20 Z M197 20 C197 29.9 197 39.8 197 50 C197.33 50 197.66 50 198 50 C198.33 40.43 198.66 30.86 199 21 C198.34 20.67 197.68 20.34 197 20 Z M-11 23 C-12.95172976 24.62256514 -13.90893974 25.51841152 -14.38818359 28.05297852 C-14.39156738 28.82053467 -14.39495117 29.58809082 -14.3984375 30.37890625 C-14.40230469 31.21744141 -14.40617188 32.05597656 -14.41015625 32.91992188 C-14.39855469 33.79197266 -14.38695312 34.66402344 -14.375 35.5625 C-14.38660156 36.43841797 -14.39820313 37.31433594 -14.41015625 38.21679688 C-14.40628906 39.05404297 -14.40242187 39.89128906 -14.3984375 40.75390625 C-14.39505371 41.52033447 -14.39166992 42.2867627 -14.38818359 43.07641602 C-14.15325881 45.40763024 -14.15325881 45.40763024 -11 47 C-10.01 47 -9.02 47 -8 47 C-8 39.41 -8 31.82 -8 24 C-8.99 23.67 -9.98 23.34 -11 23 Z M199 24 C199 31.59 199 39.18 199 47 C200.65 46.67 202.3 46.34 204 46 C204 39.07 204 32.14 204 25 C202.35 24.67 200.7 24.34 199 24 Z M204 26 C204 31.94 204 37.88 204 44 C204.33 44 204.66 44 205 44 C205 38.06 205 32.12 205 26 C204.67 26 204.34 26 204 26 Z M20 71 C20 83.21 20 95.42 20 108 C20.33 108 20.66 108 21 108 C21 95.79 21 83.58 21 71 C20.67 71 20.34 71 20 71 Z M22 71 C22 71.33 22 71.66 22 72 C30.58 72 39.16 72 48 72 C48 71.67 48 71.34 48 71 C39.42 71 30.84 71 22 71 Z M49 71 C49 75.95 49 80.9 49 86 C49.33 86 49.66 86 50 86 C50 81.05 50 76.1 50 71 C49.67 71 49.34 71 49 71 Z M59 71 C59 71.33 59 71.66 59 72 C61.31 72 63.62 72 66 72 C66 71.67 66 71.34 66 71 C63.69 71 61.38 71 59 71 Z M75 71 C75 75.95 75 80.9 75 86 C75.66 85.67 76.32 85.34 77 85 C76.67 80.38 76.34 75.76 76 71 C75.67 71 75.34 71 75 71 Z M81 71 C81 75.29 81 79.58 81 84 C81.33 84 81.66 84 82 84 C82 79.71 82 75.42 82 71 C81.67 71 81.34 71 81 71 Z M90 71 C90 71.33 90 71.66 90 72 C121.68 72 153.36 72 186 72 C186 71.67 186 71.34 186 71 C154.32 71 122.64 71 90 71 Z M22 73 C21.67 85.21 21.34 97.42 21 110 C24.89506729 110.97376682 28.01226922 111.0725042 32 111 C32.99 111 33.98 111 35 111 C37.29831971 106.052613 37.36367815 101.53843568 37.55859375 96.15625 C38.17559765 91.7443991 39.88612671 89.11387329 43 86 C44.65 85.67 46.3 85.34 48 85 C48 81.04 48 77.08 48 73 C39.42 73 30.84 73 22 73 Z M77 73 C77 76.96 77 80.92 77 85 C77.99 84.67 78.98 84.34 80 84 C80 80.37 80 76.74 80 73 C79.01 73 78.02 73 77 73 Z M99 113 C99 119.6 99 126.2 99 133 C99.33 133 99.66 133 100 133 C100 126.4 100 119.8 100 113 C99.67 113 99.34 113 99 113 Z M86 132 C90 133 90 133 90 133 Z M86 140 C90 141 90 141 90 141 Z M91 140 C91 141.65 91 143.3 91 145 C91.33 145 91.66 145 92 145 C92 143.35 92 141.7 92 140 C91.67 140 91.34 140 91 140 Z M99 140 C99 141.65 99 143.3 99 145 C99.33 145 99.66 145 100 145 C100 143.35 100 141.7 100 140 C99.67 140 99.34 140 99 140 Z M101 140 C105 141 105 141 105 141 Z M85 144 C85 144.33 85 144.66 85 145 C86.65 145 88.3 145 90 145 C90 144.67 90 144.34 90 144 C88.35 144 86.7 144 85 144 Z M101 144 C101 144.33 101 144.66 101 145 C102.65 145 104.3 145 106 145 C106 144.67 106 144.34 106 144 C104.35 144 102.7 144 101 144 Z M90 151 C90 151.33 90 151.66 90 152 C93.63 152 97.26 152 101 152 C101 151.67 101 151.34 101 151 C97.37 151 93.74 151 90 151 Z M86 152 C85.319375 153.093125 84.63875 154.18625 83.9375 155.3125 C83.36322266 156.23482422 83.36322266 156.23482422 82.77734375 157.17578125 C81.68887926 159.17133075 81.68887926 159.17133075 83 162 C91.25 162 99.5 162 108 162 C108 157.66905042 107.03435531 155.72965139 105 152 C104.01 152.495 104.01 152.495 103 153 C100.4884113 153.09792892 98.01090234 153.13907983 95.5 153.125 C94.81035156 153.12886719 94.12070313 153.13273438 93.41015625 153.13671875 C88.25333293 153.12666646 88.25333293 153.12666646 86 152 Z M79 169 C79 188.8 79 208.6 79 229 C79.33 229 79.66 229 80 229 C80 209.2 80 189.4 80 169 C79.67 169 79.34 169 79 169 Z M81 169 C81 169.33 81 169.66 81 170 C90.57 170 100.14 170 110 170 C110 169.67 110 169.34 110 169 C100.43 169 90.86 169 81 169 Z M111 169 C110.67 189.13 110.34 209.26 110 230 C110.66 230 111.32 230 112 230 C112 209.87 112 189.74 112 169 C111.67 169 111.34 169 111 169 Z M81 171 C81 189.81 81 208.62 81 228 C90.57 228 100.14 228 110 228 C110 209.19 110 190.38 110 171 C100.43 171 90.86 171 81 171 Z M82 229 C82 229.33 82 229.66 82 230 C90.91 230 99.82 230 109 230 C109 229.67 109 229.34 109 229 C100.09 229 91.18 229 82 229 Z M79 237 C79 240.96 79 244.92 79 249 C79.33 249 79.66 249 80 249 C80 245.04 80 241.08 80 237 C79.67 237 79.34 237 79 237 Z M81 237 C81 237.33 81 237.66 81 238 C90.57 238 100.14 238 110 238 C110 237.67 110 237.34 110 237 C100.43 237 90.86 237 81 237 Z M111 237 C111 240.96 111 244.92 111 249 C111.33 249 111.66 249 112 249 C112 245.04 112 241.08 112 237 C111.67 237 111.34 237 111 237 Z M81 239 C81 241.97 81 244.94 81 248 C90.57 248 100.14 248 110 248 C110 245.03 110 242.06 110 239 C100.43 239 90.86 239 81 239 Z M82 249 C82 249.33 82 249.66 82 250 C90.91 250 99.82 250 109 250 C109 249.67 109 249.34 109 249 C100.09 249 91.18 249 82 249 Z " fill="#4159EE" transform="translate(24,0)"/>
<path d="M0 0 C6.27 0 12.54 0 19 0 C19 2.97 19 5.94 19 9 C18 10 18 10 14.18359375 10.09765625 C12.60153318 10.09098089 11.01948841 10.07901875 9.4375 10.0625 C8.63119141 10.05798828 7.82488281 10.05347656 6.99414062 10.04882812 C4.99606244 10.03700518 2.99802217 10.01906914 1 10 C-0.58706842 5.8922935 -1.10191901 4.40767604 0 0 Z M2 8 C2 8.33 2 8.66 2 9 C6.95 9 11.9 9 17 9 C17 8.67 17 8.34 17 8 C12.05 8 7.1 8 2 8 Z " fill="#4159EE" transform="translate(110,183)"/>
<path d="M0 0 C2.7920301 0.1404983 5.58349796 0.28715383 8.375 0.4375 C9.1690625 0.47681641 9.963125 0.51613281 10.78125 0.55664062 C16.7734375 0.88671875 16.7734375 0.88671875 19 2 C19 4.31 19 6.62 19 9 C13.06 8.67 7.12 8.34 1 8 C-1 4 -1 4 -0.625 1.75 C-0.41875 1.1725 -0.2125 0.595 0 0 Z " fill="#4159EE" transform="translate(110,197)"/>
<path d="M0 0 C1.57043101 0.01330874 3.14079971 0.03717648 4.7109375 0.0703125 C5.51273438 0.07933594 6.31453125 0.08835938 7.140625 0.09765625 C9.12252273 0.12125027 11.10426731 0.15712185 13.0859375 0.1953125 C13.46812517 1.85145907 13.79988852 3.51988274 14.0859375 5.1953125 C13.0859375 6.1953125 13.0859375 6.1953125 9.26953125 6.29296875 C7.68747068 6.28629339 6.10542591 6.27433125 4.5234375 6.2578125 C3.71712891 6.25330078 2.91082031 6.24878906 2.08007812 6.24414062 C0.08199994 6.23231768 -1.91604033 6.21438164 -3.9140625 6.1953125 C-4.5740625 4.8753125 -5.2340625 3.5553125 -5.9140625 2.1953125 C-3.9140625 0.1953125 -3.9140625 0.1953125 0 0 Z " fill="#4159EE" transform="translate(114.9140625,212.8046875)"/>
<path d="M0 0 C35.64 0 71.28 0 108 0 C108 0.33 108 0.66 108 1 C72.36 1 36.72 1 0 1 C0 0.67 0 0.34 0 0 Z " fill="#4159EE" transform="translate(130,97)"/>
<path d="M0 0 C0.33 0 0.66 0 1 0 C1 28.38 1 56.76 1 86 C0.67 86 0.34 86 0 86 C0 57.62 0 29.24 0 0 Z " fill="#4159EE" transform="translate(94,164)"/>
<path d="M0 0 C0.33 0 0.66 0 1 0 C1 28.05 1 56.1 1 85 C0.67 85 0.34 85 0 85 C0 56.95 0 28.9 0 0 Z " fill="#4159EE" transform="translate(144,164)"/>
<path d="M0 0 C0.33 0 0.66 0 1 0 C1 16.17 1 32.34 1 49 C0.67 49 0.34 49 0 49 C0 32.83 0 16.66 0 0 Z " fill="#4159EE" transform="translate(26,11)"/>
<path d="M0 0 C0.33 0 0.66 0 1 0 C1 15.51 1 31.02 1 47 C0.67 47 0.34 47 0 47 C0 31.49 0 15.98 0 0 Z " fill="#4159EE" transform="translate(212,12)"/>
<path d="M0 0 C0.33 0 0.66 0 1 0 C1 13.53 1 27.06 1 41 C0.67 41 0.34 41 0 41 C0 27.47 0 13.94 0 0 Z " fill="#4159EE" transform="translate(244,50)"/>
<path d="M0 0 C0.33 0 0.66 0 1 0 C1 13.2 1 26.4 1 40 C0.67 40 0.34 40 0 40 C0 26.8 0 13.6 0 0 Z " fill="#4159EE" transform="translate(254,51)"/>
<path d="M0 0 C8.25 0.33 16.5 0.66 25 1 C25 1.33 25 1.66 25 2 C16.75 2 8.5 2 0 2 C0 1.34 0 0.68 0 0 Z " fill="#4159EE" transform="translate(107,159)"/>
<path d="M0 0 C0.33 0 0.66 0 1 0 C1 6.27 1 12.54 1 19 C0.67 19 0.34 19 0 19 C0 12.73 0 6.46 0 0 Z " fill="#4159EE" transform="translate(11,26)"/>
<path d="M0 0 C5.61 0 11.22 0 17 0 C17 0.33 17 0.66 17 1 C11.39 1 5.78 1 0 1 C0 0.67 0 0.34 0 0 Z " fill="#4159EE" transform="translate(111,220)"/>
<path d="M0 0 C5.61 0 11.22 0 17 0 C17 0.33 17 0.66 17 1 C11.39 1 5.78 1 0 1 C0 0.67 0 0.34 0 0 Z " fill="#4159EE" transform="translate(111,211)"/>
<path d="M0 0 C0.33 0 0.66 0 1 0 C1 5.61 1 11.22 1 17 C0.67 17 0.34 17 0 17 C0 11.39 0 5.78 0 0 Z " fill="#4159EE" transform="translate(1,27)"/>
<path d="M0 0 C5.28 0 10.56 0 16 0 C16 0.33 16 0.66 16 1 C10.72 1 5.44 1 0 1 C0 0.67 0 0.34 0 0 Z " fill="#4159EE" transform="translate(111,206)"/>
<path d="M0 0 C4.95 0 9.9 0 15 0 C15 0.33 15 0.66 15 1 C10.05 1 5.1 1 0 1 C0 0.67 0 0.34 0 0 Z " fill="#4159EE" transform="translate(112,196)"/>
<path d="M0 0 C4.95 0 9.9 0 15 0 C15 0.33 15 0.66 15 1 C10.05 1 5.1 1 0 1 C0 0.67 0 0.34 0 0 Z " fill="#4159EE" transform="translate(112,182)"/>
<path d="M0 0 C0.33 0 0.66 0 1 0 C1 4.62 1 9.24 1 14 C0.67 14 0.34 14 0 14 C0 9.38 0 4.76 0 0 Z " fill="#4159EE" transform="translate(68,96)"/>
<path d="M0 0 C0.33 0 0.66 0 1 0 C1 4.29 1 8.58 1 13 C0.67 13 0.34 13 0 13 C0 8.71 0 4.42 0 0 Z " fill="#4159EE" transform="translate(59,93)"/>
<path d="M0 0 C2.31 0 4.62 0 7 0 C7 0.33 7 0.66 7 1 C4.69 1 2.38 1 0 1 C0 0.67 0 0.34 0 0 Z " fill="#4159EE" transform="translate(49,121)"/>
<path d="M0 0 C2.31 0 4.62 0 7 0 C7 0.33 7 0.66 7 1 C4.69 1 2.38 1 0 1 C0 0.67 0 0.34 0 0 Z " fill="#4159EE" transform="translate(99,94)"/>
<path d="M0 0 C0.33 0 0.66 0 1 0 C1 1.65 1 3.3 1 5 C0.67 5 0.34 5 0 5 C0 3.35 0 1.7 0 0 Z " fill="#4159EE" transform="translate(130,199)"/>
<path d="M0 0 C0.33 0 0.66 0 1 0 C1 1.65 1 3.3 1 5 C0.67 5 0.34 5 0 5 C0 3.35 0 1.7 0 0 Z " fill="#4159EE" transform="translate(130,185)"/>
<path d="M0 0 C0.33 0 0.66 0 1 0 C1 1.65 1 3.3 1 5 C0.67 5 0.34 5 0 5 C0 3.35 0 1.7 0 0 Z " fill="#4159EE" transform="translate(132,134)"/>
<path d="M0 0 C0.33 0 0.66 0 1 0 C1 1.65 1 3.3 1 5 C0.67 5 0.34 5 0 5 C0 3.35 0 1.7 0 0 Z " fill="#4159EE" transform="translate(106,134)"/>
<path d="M0 0 C0.66 0.33 1.32 0.66 2 1 C1.01 1.66 0.02 2.32 -1 3 C-0.67 2.01 -0.34 1.02 0 0 Z " fill="#4159EE" transform="translate(28,8)"/>
<path d="M0 0 C1 4 1 4 1 4 Z " fill="#4159EE" transform="translate(130,214)"/>
<path d="M0 0 C4 1 4 1 4 1 Z " fill="#4159EE" transform="translate(28,72)"/>
<path d="" fill="#4159EE" transform="translate(0,0)"/>
<path d="M0 0 C3 1 3 1 3 1 Z " fill="#4159EE" transform="translate(46,120)"/>
<path d="" fill="#4159EE" transform="translate(0,0)"/>
<path d="" fill="#4159EE" transform="translate(0,0)"/>
<path d="M0 0 C3 1 3 1 3 1 Z " fill="#4159EE" transform="translate(238,106)"/>
<path d="" fill="#4159EE" transform="translate(0,0)"/>
<path d="" fill="#4159EE" transform="translate(0,0)"/>
<path d="" fill="#4159EE" transform="translate(0,0)"/>
<path d="M0 0 C3 1 3 1 3 1 Z " fill="#4159EE" transform="translate(239,35)"/>
<path d="" fill="#4159EE" transform="translate(0,0)"/>
<path d="M0 0 C0.66 0 1.32 0 2 0 C1.67 0.66 1.34 1.32 1 2 C0.67 1.34 0.34 0.68 0 0 Z " fill="#4159EE" transform="translate(231,18)"/>
<path d="" fill="#4159EE" transform="translate(0,0)"/>
<path d="" fill="#4159EE" transform="translate(0,0)"/>
<path d="" fill="#4159EE" transform="translate(0,0)"/>
<path d="" fill="#4159EE" transform="translate(0,0)"/>
<path d="M0 0 C2 1 2 1 2 1 Z " fill="#4159EE" transform="translate(127,197)"/>
<path d="" fill="#4159EE" transform="translate(0,0)"/>
<path d="" fill="#4159EE" transform="translate(0,0)"/>
<path d="" fill="#4159EE" transform="translate(0,0)"/>
<path d="" fill="#4159EE" transform="translate(0,0)"/>
<path d="" fill="#4159EE" transform="translate(0,0)"/>
<path d="" fill="#4159EE" transform="translate(0,0)"/>
<path d="" fill="#4159EE" transform="translate(0,0)"/>
<path d="" fill="#4159EE" transform="translate(0,0)"/>
<path d="" fill="#4159EE" transform="translate(0,0)"/>
<path d="" fill="#4159EE" transform="translate(0,0)"/>
<path d="" fill="#4159EE" transform="translate(0,0)"/>
<path d="" fill="#4159EE" transform="translate(0,0)"/>
<path d="" fill="#4159EE" transform="translate(0,0)"/>
<path d="" fill="#4159EE" transform="translate(0,0)"/>
<path d="" fill="#4159EE" transform="translate(0,0)"/>
<path d="" fill="#4159EE" transform="translate(0,0)"/>
<path d="" fill="#4159EE" transform="translate(0,0)"/>
<path d="" fill="#4159EE" transform="translate(0,0)"/>
<path d="" fill="#4159EE" transform="translate(0,0)"/>
<path d="" fill="#4159EE" transform="translate(0,0)"/>
<path d="M0 0 C2 1 2 1 2 1 Z " fill="#4159EE" transform="translate(129,132)"/>
<path d="M0 0 C2 1 2 1 2 1 Z " fill="#4159EE" transform="translate(56,120)"/>
<path d="" fill="#4159EE" transform="translate(0,0)"/>
<path d="" fill="#4159EE" transform="translate(0,0)"/>
<path d="" fill="#4159EE" transform="translate(0,0)"/>
<path d="" fill="#4159EE" transform="translate(0,0)"/>
<path d="" fill="#4159EE" transform="translate(0,0)"/>
<path d="" fill="#4159EE" transform="translate(0,0)"/>
<path d="" fill="#4159EE" transform="translate(0,0)"/>
<path d="M0 0 C2 1 2 1 2 1 Z " fill="#4159EE" transform="translate(241,105)"/>
<path d="M0 0 C2 1 2 1 2 1 Z " fill="#4159EE" transform="translate(127,98)"/>
<path d="" fill="#4159EE" transform="translate(0,0)"/>
<path d="" fill="#4159EE" transform="translate(0,0)"/>
<path d="" fill="#4159EE" transform="translate(0,0)"/>
<path d="" fill="#4159EE" transform="translate(0,0)"/>
<path d="" fill="#4159EE" transform="translate(0,0)"/>
<path d="" fill="#4159EE" transform="translate(0,0)"/>
<path d="" fill="#4159EE" transform="translate(0,0)"/>
<path d="" fill="#4159EE" transform="translate(0,0)"/>
<path d="" fill="#4159EE" transform="translate(0,0)"/>
<path d="" fill="#4159EE" transform="translate(0,0)"/>
<path d="" fill="#4159EE" transform="translate(0,0)"/>
<path d="M0 0 C2 1 2 1 2 1 Z " fill="#4159EE" transform="translate(225,56)"/>
<path d="" fill="#4159EE" transform="translate(0,0)"/>
<path d="" fill="#4159EE" transform="translate(0,0)"/>
<path d="" fill="#4159EE" transform="translate(0,0)"/>
<path d="" fill="#4159EE" transform="translate(0,0)"/>
<path d="" fill="#4159EE" transform="translate(0,0)"/>
<path d="" fill="#4159EE" transform="translate(0,0)"/>
<path d="" fill="#4159EE" transform="translate(0,0)"/>
<path d="" fill="#4159EE" transform="translate(0,0)"/>
<path d="" fill="#4159EE" transform="translate(0,0)"/>
<path d="" fill="#4159EE" transform="translate(0,0)"/>
<path d="" fill="#4159EE" transform="translate(0,0)"/>
<path d="" fill="#4159EE" transform="translate(0,0)"/>
<path d="" fill="#4159EE" transform="translate(0,0)"/>
<path d="" fill="#4159EE" transform="translate(0,0)"/>
<path d="" fill="#4159EE" transform="translate(0,0)"/>
<path d="" fill="#4159EE" transform="translate(0,0)"/>
<path d="" fill="#4159EE" transform="translate(0,0)"/>
<path d="" fill="#4159EE" transform="translate(0,0)"/>
<path d="" fill="#4159EE" transform="translate(0,0)"/>
<path d="" fill="#4159EE" transform="translate(0,0)"/>
<path d="" fill="#4159EE" transform="translate(0,0)"/>
<path d="" fill="#4159EE" transform="translate(0,0)"/>
<path d="" fill="#4159EE" transform="translate(0,0)"/>
<path d="" fill="#4159EE" transform="translate(0,0)"/>
<path d="" fill="#4159EE" transform="translate(0,0)"/>
<path d="" fill="#4159EE" transform="translate(0,0)"/>
<path d="" fill="#4159EE" transform="translate(0,0)"/>
<path d="" fill="#4159EE" transform="translate(0,0)"/>
<path d="" fill="#4159EE" transform="translate(0,0)"/>
<path d="" fill="#4159EE" transform="translate(0,0)"/>
<path d="" fill="#4159EE" transform="translate(0,0)"/>
<path d="" fill="#4159EE" transform="translate(0,0)"/>
<path d="" fill="#4159EE" transform="translate(0,0)"/>
<path d="" fill="#4159EE" transform="translate(0,0)"/>
<path d="" fill="#4159EE" transform="translate(0,0)"/>
<path d="" fill="#4159EE" transform="translate(0,0)"/>
<path d="" fill="#4159EE" transform="translate(0,0)"/>
<path d="" fill="#4159EE" transform="translate(0,0)"/>
<path d="" fill="#4159EE" transform="translate(0,0)"/>
<path d="" fill="#4159EE" transform="translate(0,0)"/>
<path d="" fill="#4159EE" transform="translate(0,0)"/>
<path d="" fill="#4159EE" transform="translate(0,0)"/>
<path d="" fill="#4159EE" transform="translate(0,0)"/>
<path d="" fill="#4159EE" transform="translate(0,0)"/>
<path d="" fill="#4159EE" transform="translate(0,0)"/>
<path d="" fill="#4159EE" transform="translate(0,0)"/>
<path d="" fill="#4159EE" transform="translate(0,0)"/>
<path d="" fill="#4159EE" transform="translate(0,0)"/>
<path d="" fill="#4159EE" transform="translate(0,0)"/>
<path d="" fill="#4159EE" transform="translate(0,0)"/>
<path d="" fill="#4159EE" transform="translate(0,0)"/>
<path d="" fill="#4159EE" transform="translate(0,0)"/>
<path d="" fill="#4159EE" transform="translate(0,0)"/>
<path d="" fill="#4159EE" transform="translate(0,0)"/>
<path d="" fill="#4159EE" transform="translate(0,0)"/>
<path d="" fill="#4159EE" transform="translate(0,0)"/>
<path d="" fill="#4159EE" transform="translate(0,0)"/>
<path d="" fill="#4159EE" transform="translate(0,0)"/>
<path d="" fill="#4159EE" transform="translate(0,0)"/>
<path d="" fill="#4159EE" transform="translate(0,0)"/>
<path d="" fill="#4159EE" transform="translate(0,0)"/>
<path d="" fill="#4159EE" transform="translate(0,0)"/>
<path d="" fill="#4159EE" transform="translate(0,0)"/>
<path d="" fill="#4159EE" transform="translate(0,0)"/>
<path d="" fill="#4159EE" transform="translate(0,0)"/>
<path d="" fill="#4159EE" transform="translate(0,0)"/>
<path d="" fill="#4159EE" transform="translate(0,0)"/>
<path d="" fill="#4159EE" transform="translate(0,0)"/>
<path d="" fill="#4159EE" transform="translate(0,0)"/>
<path d="" fill="#4159EE" transform="translate(0,0)"/>
<path d="" fill="#4159EE" transform="translate(0,0)"/>
<path d="" fill="#4159EE" transform="translate(0,0)"/>
<path d="" fill="#4159EE" transform="translate(0,0)"/>
<path d="" fill="#4159EE" transform="translate(0,0)"/>
<path d="" fill="#4159EE" transform="translate(0,0)"/>
<path d="" fill="#4159EE" transform="translate(0,0)"/>
<path d="" fill="#4159EE" transform="translate(0,0)"/>
<path d="" fill="#4159EE" transform="translate(0,0)"/>
<path d="" fill="#4159EE" transform="translate(0,0)"/>
<path d="" fill="#4159EE" transform="translate(0,0)"/>
<path d="" fill="#4159EE" transform="translate(0,0)"/>
<path d="" fill="#4159EE" transform="translate(0,0)"/>
<path d="" fill="#4159EE" transform="translate(0,0)"/>
<path d="" fill="#4159EE" transform="translate(0,0)"/>
<path d="" fill="#4159EE" transform="translate(0,0)"/>
<path d="" fill="#4159EE" transform="translate(0,0)"/>
<path d="" fill="#4159EE" transform="translate(0,0)"/>
<path d="" fill="#4159EE" transform="translate(0,0)"/>
<path d="" fill="#4159EE" transform="translate(0,0)"/>
<path d="" fill="#4159EE" transform="translate(0,0)"/>
<path d="" fill="#4159EE" transform="translate(0,0)"/>
<path d="" fill="#4159EE" transform="translate(0,0)"/>
<path d="" fill="#4159EE" transform="translate(0,0)"/>
<path d="" fill="#4159EE" transform="translate(0,0)"/>
<path d="" fill="#4159EE" transform="translate(0,0)"/>
<path d="" fill="#4159EE" transform="translate(0,0)"/>
<path d="" fill="#4159EE" transform="translate(0,0)"/>
<path d="" fill="#4159EE" transform="translate(0,0)"/>
<path d="" fill="#4159EE" transform="translate(0,0)"/>
<path d="" fill="#4159EE" transform="translate(0,0)"/>
<path d="" fill="#4159EE" transform="translate(0,0)"/>
<path d="" fill="#4159EE" transform="translate(0,0)"/>
<path d="" fill="#4159EE" transform="translate(0,0)"/>
<path d="" fill="#4159EE" transform="translate(0,0)"/>
<path d="" fill="#4159EE" transform="translate(0,0)"/>
</svg>
