<?xml version="1.0" encoding="UTF-8"?>
<svg version="1.1" xmlns="http://www.w3.org/2000/svg" width="512" height="512" fill="#4159EE">
<path d="M0 0 C1.21098862 -0.01007584 1.21098862 -0.01007584 2.44644165 -0.02035522 C5.10254146 -0.03927826 7.75838785 -0.04325642 10.41455078 -0.04541016 C12.27011212 -0.05184168 14.12567245 -0.0585703 15.98123169 -0.06558228 C19.86641795 -0.07754053 23.75151539 -0.08126456 27.63671875 -0.08007812 C32.60203689 -0.07987494 37.56678269 -0.10718351 42.53196526 -0.14162254 C46.36339914 -0.16391714 50.1946958 -0.16791489 54.0261879 -0.16685867 C55.85613097 -0.16921052 57.68607805 -0.17801051 59.51595688 -0.19352341 C62.08135236 -0.21323709 64.64551999 -0.207325 67.2109375 -0.1953125 C67.95821106 -0.20655151 68.70548462 -0.21779053 69.47540283 -0.22937012 C76.10973798 -0.15088459 81.23772444 2.07481208 86.19580078 6.47412109 C87.14326172 7.58980469 87.14326172 7.58980469 88.10986328 8.72802734 C89.08052734 9.83984375 89.08052734 9.83984375 90.07080078 10.97412109 C94.53683974 17.19093119 94.85477552 24.05059507 94.89308167 31.50387573 C94.90048863 32.55899674 94.90048863 32.55899674 94.90804523 33.63543332 C94.92333837 35.97993506 94.93175851 38.3244096 94.94018555 40.66894531 C94.94977052 42.35454037 94.95978096 44.04013306 94.97018433 45.72572327 C94.9971724 50.2933889 95.01821491 54.8610648 95.03818631 59.42876577 C95.06008355 64.20538793 95.08745393 68.98197866 95.11424255 73.75857544 C95.16411895 82.80005486 95.2090765 91.84155177 95.25226492 100.88306534 C95.30168052 111.17807168 95.3565826 121.47304648 95.41194451 131.7680223 C95.52568696 152.94216125 95.63254281 174.11633032 95.73486328 195.29052734 C103.30959857 187.7390373 110.88157492 180.18479263 118.45011234 172.62709045 C121.96516391 169.11724117 125.48113272 165.60832142 128.99926758 162.1015625 C132.39906259 158.71269116 135.79635672 155.32133071 139.19198418 151.92828369 C140.48316469 150.63894042 141.77522001 149.35047255 143.06819344 148.06292725 C151.82204634 139.3493202 151.82204634 139.3493202 160.08421898 130.17386627 C163.54668806 126.22328601 167.29946338 122.54293165 170.99975586 118.81689453 C171.90155075 117.90531586 172.80334564 116.99373718 173.73246765 116.05453491 C176.69427784 113.06167957 179.66134154 110.07406511 182.62939453 107.08740234 C183.13674944 106.57675012 183.64410434 106.06609789 184.16683364 105.53997135 C188.96154946 100.7145191 193.75830254 95.89110048 198.55989552 91.07249069 C204.67092548 84.93953382 210.77165446 78.79671287 216.85885125 72.64009738 C221.15854545 68.29306 225.46976974 63.95767033 229.78957289 59.63061643 C232.36167921 57.05357522 234.92856594 54.47181043 237.4831028 51.87734222 C240.33282629 48.98365001 243.20606251 46.11443624 246.08178711 43.24658203 C246.91380646 42.39456207 247.74582581 41.54254211 248.60305786 40.66470337 C255.13513455 34.21231392 262.26643036 29.71457787 271.73486328 29.72802734 C273.09611328 29.69515625 273.09611328 29.69515625 274.48486328 29.66162109 C285.5650434 31.80574249 292.77699025 39.60602754 300.38330078 47.31005859 C301.56931684 48.4952442 302.75615066 49.67961198 303.9437561 50.86320496 C306.41750356 53.33410917 308.88232825 55.81347949 311.34082031 58.29956055 C314.47925829 61.47213414 317.63740997 64.62418147 320.80228233 67.77035999 C323.25139391 70.20886384 325.69060389 72.6570828 328.12691116 75.10837364 C329.28744369 76.27405693 330.45076777 77.43696839 331.61701584 78.59693336 C346.72760457 93.65659013 346.72760457 93.65659013 347.04736328 105.35302734 C346.86361929 114.69947183 343.83444877 120.48035036 337.44561768 127.22111511 C336.65439133 128.0662675 336.65439133 128.0662675 335.8471806 128.92849368 C329.56991028 135.59333383 323.09561022 142.06232176 316.61279297 148.52612305 C315.24136704 149.89726608 313.87016289 151.26863097 312.49916077 152.64019775 C308.81833881 156.32130371 305.13446723 159.99934336 301.44999218 163.67679238 C297.5844986 167.53598574 293.72188372 171.39805827 289.85894775 175.2598114 C282.56212605 182.55353929 275.26276165 189.84471688 267.96245408 197.13495559 C259.64353166 205.44265594 251.32748768 213.75323511 243.01167059 222.06404364 C225.92257657 239.14271748 208.82991537 256.21781743 191.73486328 273.29052734 C195.89649698 273.29052734 199.06760784 271.48568829 202.77392578 269.76708984 C203.58981171 269.39458099 204.40569763 269.02207214 205.24630737 268.63827515 C207.019676 267.82822455 208.79194028 267.01575299 210.56323242 266.20117188 C215.34648838 264.00225211 220.1384084 261.82238518 224.93017578 259.64208984 C226.40958649 258.96838348 226.40958649 258.96838348 227.91888428 258.28106689 C237.65045474 253.85773431 247.43698487 249.56444711 257.23486328 245.29052734 C271.11714163 239.22926027 284.94439267 233.05780143 298.73486328 226.79052734 C313.19548243 220.22055485 327.69193957 213.73887928 342.23486328 207.35302734 C343.10208008 206.97162598 343.96929687 206.59022461 344.86279297 206.19726562 C349.51434736 204.15275349 354.17016188 202.11884317 358.83666992 200.1086731 C360.51740187 199.38425601 362.19565772 198.65410002 363.87353516 197.9230957 C371.44616364 194.72936654 378.49827988 193.70788306 386.53955078 196.13818359 C397.13707708 200.8893542 401.87550655 209.7081606 406.20361328 220.03271484 C406.68761597 221.15509552 407.17161865 222.2774762 407.67028809 223.43386841 C409.20586651 227.00525532 410.72025942 230.585203 412.23486328 234.16552734 C413.25048743 236.5306706 414.26740392 238.89525934 415.28564453 241.25927734 C419.60350521 251.31750859 423.86182439 261.40338876 427.91455078 271.57177734 C428.19907104 272.27051971 428.48359131 272.96926208 428.7767334 273.68917847 C431.65540855 281.05457615 431.96110151 287.98914898 429.67236328 295.54052734 C425.33383351 304.95688791 418.40844569 308.97073217 409.19921875 312.93896484 C408.33370895 313.3121283 407.46819916 313.68529175 406.57646179 314.06976318 C401.34276509 316.31818404 396.10785823 318.56374465 390.87158203 320.80615234 C389.64024997 321.33363826 388.40892692 321.86114523 387.1776123 322.38867188 C384.62775072 323.48107864 382.07785095 324.57339622 379.52792358 325.66564941 C373.59654071 328.20642885 367.66573573 330.74855673 361.73486328 333.29052734 C359.40153258 334.29053349 357.06819924 335.29053347 354.73486328 336.29052734 C353.57986328 336.78552734 352.42486328 337.28052734 351.23486328 337.79052734 C336.11832682 344.26904297 321.00179036 350.74755859 305.88525391 357.22607422 C305.258125 357.49484375 304.63099609 357.76361328 303.98486328 358.04052734 C299.90152995 359.79052734 295.81819661 361.54052734 291.73486328 363.29052734 C292.31924636 363.27506615 292.90362944 363.25960495 293.50572109 363.24367523 C307.7541011 362.86678335 322.00251524 362.49120552 336.25096798 362.11707306 C343.14153151 361.9361109 350.032083 361.75471123 356.92260742 361.57226562 C363.57505595 361.39612498 370.22753635 361.22122471 376.88003731 361.04707336 C379.41528971 360.98050328 381.95053132 360.91352089 384.48576164 360.84611511 C388.04264459 360.75161719 391.59956344 360.65859887 395.15649414 360.56591797 C396.72096031 360.52383965 396.72096031 360.52383965 398.31703186 360.48091125 C422.03041503 359.87011088 422.03041503 359.87011088 430.10986328 366.54052734 C440.45277282 376.54979464 440.06544638 389.68826897 440.35986328 403.35302734 C440.37688293 404.06620117 440.39390259 404.779375 440.41143799 405.51416016 C440.52297963 410.24072101 440.6100661 414.9674305 440.6887207 419.69464111 C440.73682879 422.40110259 440.7947376 425.10723772 440.85400391 427.81347656 C440.95466449 432.544753 441.02455061 437.27571247 441.07489014 442.00778198 C441.09800771 443.84720286 441.12947808 445.68653976 441.16973877 447.52566528 C441.59482736 467.88880238 441.59482736 467.88880238 434.0078125 476.17724609 C428.03448153 482.01996219 420.59506812 483.71129256 412.46157837 483.92503357 C411.65092411 483.95700756 410.84026984 483.98898154 410.0050503 484.02192444 C407.24862921 484.12593894 404.49203257 484.20887771 401.73486328 484.29052734 C399.68699859 484.35946929 397.63915141 484.42893288 395.59132004 484.4988575 C388.43066241 484.73536257 381.26914137 484.93714248 374.10742188 485.13842773 C372.06352597 485.19692012 370.01964062 485.2557716 367.97575639 485.31467039 C358.27840856 485.59408433 348.58087403 485.86672322 338.88330078 486.13818359 C337.31554044 486.18211275 335.74778013 486.22604305 334.18001986 486.26997447 C319.40582402 486.68378367 304.6315629 487.09521989 289.8571682 487.50187016 C286.44367763 487.59585915 283.03018791 487.68987871 279.61669922 487.78393555 C278.76887224 487.80729496 277.92104526 487.83065438 277.04752655 487.85472166 C264.40072797 488.20348666 251.75424777 488.56242021 239.10791016 488.92749023 C173.69414381 490.81370777 108.28651897 492.6609451 42.84129 492.77817607 C39.18256159 492.78654416 35.52391448 492.80169316 31.8652153 492.81834602 C26.24153349 492.8417903 20.61829199 492.84325613 14.99459219 492.82559514 C12.96865355 492.82165053 10.94269098 492.82396306 8.9167695 492.83318782 C6.17066882 492.84367899 3.42584872 492.82887564 0.67984009 492.80711365 C-0.10230382 492.81531995 -0.88444772 492.82352626 -1.69029295 492.83198124 C-8.59364149 492.72745093 -14.54538165 490.61166182 -19.82373047 486.10693359 C-20.75378906 484.99125 -20.75378906 484.99125 -21.70263672 483.85302734 C-22.34072266 483.11181641 -22.97880859 482.37060547 -23.63623047 481.60693359 C-27.43488454 476.20501066 -27.56235892 471.44373026 -27.55566406 465.04980469 C-27.56238129 464.12730423 -27.56909851 463.20480377 -27.57601929 462.25434875 C-27.59498479 459.21166573 -27.59892207 456.16920325 -27.60107422 453.12646484 C-27.60750068 451.01087351 -27.61422893 448.89528306 -27.62124634 446.7796936 C-27.63321369 442.34969012 -27.63692746 437.9197646 -27.63574219 433.48974609 C-27.63553846 427.8053745 -27.6628982 422.12149988 -27.69728661 416.43724632 C-27.71948409 412.07072639 -27.72358201 407.7043277 -27.72252274 403.33775711 C-27.72488728 401.24132186 -27.73375848 399.14488369 -27.74918747 397.04850388 C-27.76871267 394.12279711 -27.76306374 391.19818409 -27.75097656 388.27246094 C-27.76221558 387.40278183 -27.77345459 386.53310272 -27.78503418 385.6370697 C-27.72362601 379.80849039 -27.72362601 379.80849039 -25.43008423 377.21743774 C-22.37407429 375.90902385 -20.41663022 376.39988788 -17.26513672 377.29052734 C-14.71449161 379.84117246 -15.01476878 381.50385087 -14.97505188 384.98274231 C-14.97603378 385.7780687 -14.97701569 386.57339508 -14.97802734 387.39282227 C-14.97119431 388.23043091 -14.96436127 389.06803955 -14.95732117 389.93103027 C-14.94371002 391.75401807 -14.93467164 393.57704432 -14.92961121 395.40007591 C-14.92133767 398.2881187 -14.90084438 401.17584289 -14.8770752 404.063797 C-14.82876693 410.20182656 -14.79591484 416.33988817 -14.76513672 422.47802734 C-14.72944641 429.57359453 -14.68740552 436.6690079 -14.62919617 443.76442909 C-14.60918002 446.60438224 -14.60081643 449.4442166 -14.59289551 452.28422546 C-14.57991485 454.03657454 -14.56639334 455.78891972 -14.55224609 457.54125977 C-14.553228 458.326465 -14.5542099 459.11167023 -14.55522156 459.92066956 C-14.49642019 465.17142043 -14.23986914 470.70773949 -10.93310547 475.03271484 C-5.49897386 479.1907575 -1.16864127 479.41441272 5.52539062 479.43579102 C6.5191143 479.44082893 6.5191143 479.44082893 7.53291321 479.44596863 C9.7122284 479.45542904 11.89146636 479.45741925 14.07080078 479.45849609 C15.59388256 479.46171205 17.11696403 479.46507638 18.64004517 479.46858215 C21.82921057 479.47456111 25.01834892 479.47642332 28.20751953 479.47583008 C32.2816036 479.47572852 36.35551315 479.48937987 40.42955589 479.50660229 C43.57466418 479.51775441 46.71973069 479.5197483 49.86485672 479.51922035 C51.3662641 479.52039566 52.86767273 479.52479206 54.36906052 479.53255272 C56.47467818 479.54241797 58.5799224 479.53944919 60.68554688 479.53344727 C62.4782753 479.53558479 62.4782753 479.53558479 64.30722046 479.5377655 C68.6329025 479.22575118 72.99193332 478.65829749 76.47705078 475.92333984 C80.4008145 470.70067503 80.85863788 467.32059922 80.87352848 460.87935257 C80.8763707 460.23484357 80.87921292 459.59033456 80.88214126 458.92629498 C80.89048991 456.75791834 80.8917566 454.58959511 80.89308167 452.42120361 C80.8976469 450.85445077 80.90264687 449.28769913 80.90804523 447.72094893 C80.92164013 443.40879252 80.92904861 439.096644 80.93547189 434.78447175 C80.94346989 430.13690911 80.95716974 425.48936294 80.97018433 420.84181213 C80.99195559 412.78733078 81.01009771 404.73284776 81.02578926 396.67835236 C81.04848196 385.03284007 81.07662563 373.387346 81.10610854 361.74184915 C81.1537918 342.84874081 81.197054 323.95562502 81.23754883 305.0625 C81.27690002 286.70735088 81.31832534 268.35220837 81.36254883 249.99707031 C81.3652731 248.86604988 81.36799737 247.73502945 81.3708042 246.56973568 C81.38448361 240.89585513 81.3982039 235.22197468 81.41194451 229.54809427 C81.52592083 182.4622516 81.63191549 135.37639567 81.73486328 88.29052734 C49.72486328 88.29052734 17.71486328 88.29052734 -15.26513672 88.29052734 C-15.24942627 95.82300293 -15.23371582 103.35547852 -15.2175293 111.11621094 C-15.16941814 135.19472389 -15.13602601 159.27323404 -15.11194073 183.35178199 C-15.10818844 187.08950191 -15.10430549 190.8272217 -15.1003418 194.56494141 C-15.09955487 195.30907986 -15.09876793 196.05321832 -15.09795716 196.81990643 C-15.08488967 208.8818831 -15.06122848 220.94381705 -15.03367833 233.00576834 C-15.00566141 245.37489107 -14.98896834 257.74399136 -14.98287123 270.11314452 C-14.97874705 277.75063538 -14.96570359 285.38800548 -14.94138732 293.02545919 C-14.92371156 298.87376865 -14.92176167 304.72201553 -14.92581367 310.57035255 C-14.9249847 312.97545556 -14.91896942 315.38056291 -14.90752029 317.78563881 C-14.89270754 321.05626964 -14.896142 324.32637367 -14.90437317 327.59701538 C-14.89563464 328.56003582 -14.88689612 329.52305627 -14.87789279 330.51525915 C-14.88386594 331.38660674 -14.88983908 332.25795434 -14.89599323 333.15570641 C-14.89485407 333.91134986 -14.89371491 334.66699332 -14.89254123 335.44553506 C-15.26513672 337.29052734 -15.26513672 337.29052734 -18.26513672 339.29052734 C-22.34004424 339.63010297 -23.79514943 339.60385221 -27.26513672 337.29052734 C-27.64233488 335.00589836 -27.64233488 335.00589836 -27.64545345 332.08483696 C-27.65389339 330.97458526 -27.66233333 329.86433357 -27.67102903 328.72043788 C-27.66501899 327.49050802 -27.65900894 326.26057815 -27.65281677 324.99337769 C-27.65820231 323.69466016 -27.66358785 322.39594263 -27.66913658 321.05787003 C-27.68366333 317.44066039 -27.67932408 313.82367718 -27.67196977 310.20645475 C-27.66725789 306.30989121 -27.67973061 302.41337807 -27.68998718 298.51683044 C-27.70722211 290.87692009 -27.70800516 283.23709181 -27.70277428 275.59716706 C-27.6987385 269.38684316 -27.70016909 263.17654359 -27.70552254 256.96622086 C-27.70627096 256.08346138 -27.70701938 255.20070191 -27.70779048 254.29119215 C-27.70932192 252.49799806 -27.71086027 250.70480398 -27.71240545 248.9116099 C-27.72614854 232.07654291 -27.72068109 215.24152232 -27.70922024 198.40645637 C-27.69929545 183.00544248 -27.71221224 167.60454887 -27.73615443 152.20355354 C-27.76054238 136.39682561 -27.77015346 120.5901537 -27.7635017 104.78340733 C-27.76000758 95.90648157 -27.76225376 87.02964822 -27.77975273 78.15273666 C-27.79447132 70.59222046 -27.79511517 63.03186167 -27.77768182 55.47134857 C-27.76916477 51.61413745 -27.767039 47.75720757 -27.78233337 43.90001106 C-27.79871667 39.71630536 -27.78404315 35.53327905 -27.76634216 31.34957886 C-27.77594717 30.13303332 -27.78555218 28.91648779 -27.79544824 27.66307724 C-27.72449672 19.52349843 -26.60686249 14.11832231 -21.11669922 7.82958984 C-20.38193359 7.19794922 -19.64716797 6.56630859 -18.89013672 5.91552734 C-18.16052734 5.26841797 -17.43091797 4.62130859 -16.67919922 3.95458984 C-11.45829859 0.3557166 -6.17829099 -0.0074533 0 0 Z M-10.22607422 15.84130859 C-10.69271484 16.42267578 -11.15935547 17.00404297 -11.64013672 17.60302734 C-12.36330078 18.46347656 -12.36330078 18.46347656 -13.10107422 19.34130859 C-15.32194789 23.06015411 -15.38963173 27.11095867 -15.37866211 31.35620117 C-15.37854126 32.35043091 -15.37842041 33.34466064 -15.3782959 34.36901855 C-15.37317993 35.40143677 -15.36806396 36.43385498 -15.36279297 37.49755859 C-15.36178589 38.45577515 -15.36077881 39.4139917 -15.35974121 40.40124512 C-15.35452322 43.96851809 -15.34056196 47.53577397 -15.32763672 51.10302734 C-15.30701172 59.08490234 -15.28638672 67.06677734 -15.26513672 75.29052734 C16.74486328 75.29052734 48.75486328 75.29052734 81.73486328 75.29052734 C81.79673828 67.18490234 81.85861328 59.07927734 81.92236328 50.72802734 C81.94967529 48.18140381 81.9769873 45.63478027 82.00512695 43.01098633 C82.01389413 40.9778694 82.02153752 38.94474718 82.02783203 36.91162109 C82.04317993 35.86784302 82.05852783 34.82406494 82.07434082 33.74865723 C82.0767057 27.13250524 81.65565788 21.849747 77.30517578 16.54833984 C71.94201659 12.34478264 67.602187 12.16652642 60.94433594 12.14526367 C59.95061226 12.14022575 59.95061226 12.14022575 58.93681335 12.13508606 C56.75749816 12.12562565 54.5782602 12.12363544 52.39892578 12.12255859 C50.875844 12.11934264 49.35276253 12.11597831 47.8296814 12.11247253 C44.64051599 12.10649357 41.45137764 12.10463137 38.26220703 12.10522461 C34.18812296 12.10532617 30.11421341 12.09167481 26.04017067 12.0744524 C22.89506239 12.06330028 19.74999587 12.06130639 16.60486984 12.06183434 C15.10346246 12.06065903 13.60205383 12.05626263 12.10066605 12.04850197 C9.99504838 12.03863671 7.88980416 12.0416055 5.78417969 12.04760742 C4.5890274 12.0461824 3.39387512 12.04475739 2.1625061 12.04328918 C-2.33523173 12.36771401 -6.6260857 12.99430572 -10.22607422 15.84130859 Z M252.18017578 56.64990234 C251.27862762 57.5542804 250.37707947 58.45865845 249.44821167 59.39044189 C247.06744233 61.78047734 244.6911024 64.17474631 242.3168335 66.57122803 C239.88693757 69.0216861 237.45127723 71.4664001 235.01611328 73.91162109 C230.25039665 78.69934346 225.49044148 83.49273562 220.73486328 88.29052734 C221.6849196 89.57379858 222.63726756 90.85537342 223.59057617 92.13623047 C224.12066788 92.85008911 224.65075958 93.56394775 225.19691467 94.29943848 C227.02243186 96.66282495 229.01280639 98.7300327 231.17236328 100.79052734 C233.86676742 103.4224784 236.47117455 106.05580715 238.92236328 108.91552734 C242.33684318 112.89248537 245.90150816 116.71646341 249.48486328 120.54052734 C254.71381573 126.12254463 259.91144224 131.7300872 265.07080078 137.37646484 C266.92637537 139.4061696 268.78512298 141.4324813 270.64892578 143.45458984 C275.4391502 148.65547354 280.18310697 153.87762795 284.73486328 159.29052734 C288.13855097 157.81646979 290.37408542 155.90936895 292.99682617 153.30322266 C293.82771255 152.48186829 294.65859894 151.66051392 295.5146637 150.81427002 C296.40330612 149.92471619 297.29194855 149.03516235 298.20751953 148.11865234 C299.58670815 146.74589142 299.58670815 146.74589142 300.99375916 145.34539795 C302.93798302 143.40862621 304.87829861 141.46803718 306.81616211 139.52490234 C309.29134931 137.04392844 311.77769686 134.57448955 314.26735783 132.1080513 C316.65021198 129.74353668 319.02196153 127.36799829 321.39501953 124.99365234 C322.28568619 124.11219543 323.17635284 123.23073853 324.0940094 122.3225708 C325.33561073 121.07162628 325.33561073 121.07162628 326.60229492 119.79541016 C327.32969376 119.06864075 328.05709259 118.34187134 328.80653381 117.59307861 C331.88490579 113.91730151 333.57748587 110.54954661 334.17236328 105.79052734 C333.15282796 97.63424479 325.94208113 92.2522537 320.36767578 86.76318359 C318.97340137 85.37685839 317.57912962 83.99053051 316.18501091 82.60404873 C314.23982222 80.671941 312.29010986 78.74443044 310.34033203 76.81695557 C306.93522139 73.4498885 303.53486099 70.07804195 300.13815308 66.70249939 C298.33343348 64.9099361 296.52604738 63.12005216 294.71560669 61.33326721 C290.62317749 57.27313657 286.66151102 53.21340063 283.04440308 48.72019958 C279.74072744 45.11345669 276.01939017 43.47081182 271.17236328 42.79052734 C263.06078313 43.97039355 257.6794358 51.08508129 252.18017578 56.64990234 Z M208.79234314 100.11279297 C207.94184891 100.96550781 207.09135468 101.81822266 206.21508789 102.69677734 C205.74677048 103.16494873 205.27845306 103.63312012 204.79594421 104.11547852 C203.2406514 105.67147085 201.68893546 107.23098101 200.13720703 108.79052734 C199.06268196 109.86691645 197.98793665 110.94308574 196.91297913 112.01904297 C194.07818337 114.85766501 191.24640279 117.69927681 188.41522217 120.54150391 C185.52812805 123.43880977 182.63821671 126.3333025 179.74853516 129.22802734 C174.07453697 134.91276481 168.40371836 140.60066115 162.73486328 146.29052734 C163.67533635 147.56502655 164.61869019 148.83740027 165.56323242 150.10888672 C166.08824844 150.81766968 166.61326447 151.52645264 167.15419006 152.25671387 C169.28581445 154.9994227 171.67313451 157.38198177 174.17236328 159.79052734 C177.95242076 163.44403268 181.44987072 167.21360097 184.8894043 171.18896484 C187.99556379 174.72618153 191.24452967 178.12661852 194.48486328 181.54052734 C200.01372867 187.38931789 205.49420067 193.27423611 210.91845703 199.22021484 C216.47117989 205.29216921 222.11287945 211.28280156 227.73486328 217.29052734 C233.61461378 212.41328298 239.00367145 207.15165856 244.38720703 201.73583984 C245.28734024 200.83429169 246.18747345 199.93274353 247.11488342 199.00387573 C249.48559151 196.62854518 251.85410843 194.25107329 254.22155762 191.87249756 C256.64667057 189.43708018 259.07468413 187.00455822 261.50244141 184.57177734 C266.24923456 179.81399966 270.9931561 175.05337355 275.73486328 170.29052734 C274.22670618 166.23962993 272.709852 163.95544788 269.54736328 160.97802734 C265.99655495 157.61377637 262.77330907 154.08283382 259.57543945 150.3894043 C256.62806366 147.02840287 253.55555914 143.78853373 250.48486328 140.54052734 C244.17775891 133.84098092 237.93807808 127.08628803 231.73486328 120.29052734 C230.80034663 119.27195016 229.86544416 118.25372683 228.93017578 117.23583984 C228.46305176 116.72730469 227.99592773 116.21876953 227.51464844 115.69482422 C226.58997497 114.68819325 225.66517367 113.68167969 224.74023438 112.67529297 C220.91893416 108.50961934 217.15764895 104.29211397 213.41455078 100.05615234 C212.58310547 99.18216797 212.58310547 99.18216797 211.73486328 98.29052734 C210.41250627 98.17649876 210.41250627 98.17649876 208.79234314 100.11279297 Z M149.07861328 159.81005859 C148.59392578 160.29861328 148.10923828 160.78716797 147.60986328 161.29052734 C146.67916016 162.21865234 145.74845703 163.14677734 144.78955078 164.10302734 C142.68842939 166.25178632 140.71465971 168.46864314 138.77001953 170.75927734 C132.9778985 177.44249391 126.56784172 183.5617315 120.29736328 189.79052734 C118.98007269 191.1027932 117.66301342 192.41529129 116.34619141 193.72802734 C113.14507718 196.9182124 109.94084463 200.10523385 106.73486328 203.29052734 C108.15878439 207.0784453 109.45171319 209.33080968 112.42236328 212.10302734 C115.72355165 215.27997744 118.76835024 218.55371127 121.75439453 222.02490234 C124.20092096 224.82368998 126.71563049 227.55742551 129.23486328 230.29052734 C132.83521342 234.200136 136.37904401 238.14919741 139.85986328 242.16552734 C142.28036436 244.9087619 144.75688738 247.5993564 147.23486328 250.29052734 C150.84637195 254.2131739 154.40649962 258.17161633 157.89892578 262.20068359 C161.7812805 266.61995971 165.76733663 270.947802 169.73486328 275.29052734 C172.62280313 273.98202099 174.68836503 272.58606254 176.92358398 270.34472656 C177.52133133 269.75005585 178.11907867 269.15538513 178.73493958 268.54269409 C179.37042221 267.90002594 180.00590485 267.25735779 180.66064453 266.59521484 C181.32646042 265.92894073 181.99227631 265.26266663 182.67826843 264.57620239 C184.0867951 263.16465674 185.49289261 261.75068354 186.89672852 260.33447266 C189.02397477 258.18911498 191.15896771 256.051723 193.29541016 253.91552734 C194.66762477 252.53839116 196.03938391 251.16080095 197.41064453 249.78271484 C198.04005447 249.15219208 198.66946442 248.52166931 199.31794739 247.87203979 C203.11204151 244.03808136 206.72557695 240.09094706 210.24481201 236.00296021 C211.97541824 234.01407094 213.78926484 232.1351952 215.67236328 230.29052734 C216.25888672 229.71302734 216.84541016 229.13552734 217.44970703 228.54052734 C217.87380859 228.12802734 218.29791016 227.71552734 218.73486328 227.29052734 C210.53954316 217.62425233 201.94215321 208.34273438 193.28564453 199.09130859 C188.56613427 194.04517097 183.88392874 188.9648636 179.20263672 183.88330078 C177.71678295 182.27090724 176.22992521 180.65944609 174.74267578 179.04833984 C174.24566162 178.50991455 173.74864746 177.97148926 173.23657227 177.41674805 C172.24419567 176.34209018 171.25152514 175.26770366 170.25854492 174.19360352 C167.61331603 171.33117364 164.97591978 168.46196455 162.34814453 165.58349609 C161.79578125 164.98021484 161.24341797 164.37693359 160.67431641 163.75537109 C159.60701415 162.58941064 158.54183345 161.42150384 157.47900391 160.25146484 C156.25118134 158.91232413 154.9957867 157.59854807 153.73486328 156.29052734 C151.6688443 156.29052734 150.4569682 158.43555383 149.07861328 159.81005859 Z M362.90673828 212.37646484 C361.99531067 212.79344635 361.08388306 213.21042786 360.14483643 213.64004517 C357.25146617 214.96783996 354.36830295 216.31632429 351.48486328 217.66552734 C349.53236839 218.56533338 347.57924874 219.46378506 345.62548828 220.36083984 C336.12648232 224.71340063 336.12648232 224.71340063 326.73486328 229.29052734 C329.45641045 237.98381472 332.91769425 246.36495884 336.35986328 254.79052734 C336.68145416 255.57834595 337.00304504 256.36616455 337.3343811 257.17785645 C338.70335888 260.53048592 340.07299917 263.8828382 341.44569397 267.23394775 C343.71796516 272.78473524 345.96613768 278.34468924 348.19976807 283.91113281 C349.72475905 287.70397914 351.26264442 291.49151323 352.80316162 295.27807617 C353.5484271 297.11756548 354.2883952 298.95921002 355.02301025 300.80297852 C356.05213946 303.38295514 357.10009766 305.95448512 358.15283203 308.52490234 C358.60826134 309.6862973 358.60826134 309.6862973 359.07289124 310.87115479 C360.01488799 313.23772293 360.01488799 313.23772293 361.73486328 316.29052734 C364.89437778 317.58732803 365.74569916 317.28673666 369.11962891 316.10644531 C370.46539522 315.51029593 371.80560801 314.90150942 373.14111328 314.28271484 C373.86165894 313.96021759 374.58220459 313.63772034 375.32458496 313.30545044 C377.6330554 312.26960391 379.93399 311.21812626 382.23486328 310.16552734 C384.50201513 309.14080954 386.77061566 308.11935951 389.039505 307.09849548 C390.51858694 306.43204046 391.9966156 305.7632427 393.47355652 305.09205627 C398.72762876 302.71117549 404.03413762 300.50312109 409.41381836 298.41870117 C413.57372242 296.39672614 415.68302752 293.39419887 417.73486328 289.29052734 C418.61398816 281.51829007 415.79825288 275.70557452 412.69580078 268.68115234 C412.17732574 267.47795349 411.65885071 266.27475464 411.12466431 265.03509521 C410.02866172 262.4929823 408.92348265 259.95515461 407.81054688 257.42041016 C406.39987649 254.20751988 405.00456459 250.98827658 403.61528587 247.76608658 C402.27213505 244.6522585 400.92169226 241.54163103 399.57080078 238.43115234 C399.07679779 237.29325256 398.5827948 236.15535278 398.07382202 234.98297119 C395.67730479 229.51925177 393.21380947 224.09243111 390.62011719 218.71923828 C389.93340439 217.29608307 389.93340439 217.29608307 389.2328186 215.84417725 C386.97741484 211.99926177 384.99717255 209.7112971 380.73486328 208.29052734 C373.77485013 207.6713734 369.14955837 209.42181496 362.90673828 212.37646484 Z M95.73486328 214.29052734 C93.59178274 216.43360788 94.47060312 221.29769698 94.41503906 224.26977539 C94.39401123 225.2130368 94.3729834 226.15629822 94.35131836 227.12814331 C94.16770234 235.87490673 94.0620947 244.623038 93.97917366 253.37127972 C93.92270706 259.24621907 93.84150572 265.1184028 93.69921875 270.99194336 C93.56214952 276.67333119 93.4902277 282.35222772 93.4625206 288.03516579 C93.44116136 290.19261684 93.39735693 292.34997636 93.32980728 294.50647545 C92.78744347 308.59806878 92.78744347 308.59806878 99.28188896 320.6100359 C101.49261256 322.84583568 103.7951376 324.9201028 106.20705795 326.93584633 C108.34489459 328.83143254 110.03636715 331.00247341 111.73486328 333.29052734 C115.30965319 331.77245454 117.59298052 329.67478024 120.31982422 326.93261719 C121.22045593 326.03183441 122.12108765 325.13105164 123.04901123 324.20297241 C124.02252809 323.21924326 124.99593453 322.23540484 125.96923828 321.25146484 C126.97199489 320.24497606 127.9751955 319.23892945 128.9788208 318.23330688 C131.61360141 315.59090587 134.24231939 312.94255306 136.86981201 310.29290771 C139.55426016 307.58796682 142.24440951 304.88870913 144.93408203 302.18896484 C150.20659947 296.89502561 155.47272386 291.59478451 160.73486328 286.29052734 C158.84965729 282.21185649 156.11723424 279.26765956 153.04736328 276.04052734 C151.95023536 274.8706796 150.85387651 273.7001101 149.75830078 272.52880859 C149.23204102 271.96758301 148.70578125 271.40635742 148.16357422 270.828125 C146.46003307 268.99475143 144.80758065 267.1224865 143.17236328 265.22802734 C140.25688411 261.85633627 137.25410686 258.56909867 134.23486328 255.29052734 C130.63471005 251.38073553 127.09068664 247.43186199 123.60986328 243.41552734 C121.18936087 240.67229127 118.71276843 237.98176484 116.23486328 235.29052734 C111.39892322 230.03542336 106.59640859 224.75485187 102.04736328 219.24755859 C101.51111328 218.60173828 100.97486328 217.95591797 100.42236328 217.29052734 C99.95185547 216.71302734 99.48134766 216.13552734 98.99658203 215.54052734 C97.79407601 214.05592734 97.79407601 214.05592734 95.73486328 214.29052734 Z M308.99804688 236.83178711 C308.22899017 237.1695668 307.45993347 237.5073465 306.66757202 237.85536194 C305.83126251 238.22713058 304.994953 238.59889923 304.13330078 238.98193359 C303.26403961 239.36486069 302.39477844 239.74778778 301.49917603 240.14231873 C298.7012058 241.37578192 295.9055026 242.6142915 293.10986328 243.85302734 C291.27928487 244.66131157 289.44855728 245.46925802 287.61767578 246.27685547 C284.03335822 247.8582146 280.44979444 249.44126406 276.86669922 251.02539062 C269.83141792 254.13357571 262.78413031 257.2142217 255.73486328 260.29052734 C256.35603643 265.695814 258.16088835 270.23018054 260.24267578 275.20068359 C260.60045609 276.06960236 260.95823639 276.93852112 261.32685852 277.83377075 C262.49856336 280.67602865 263.67893778 283.51458951 264.85986328 286.35302734 C266.50133345 290.31828665 268.13951719 294.28490103 269.77783203 298.25146484 C270.1925325 299.25362534 270.60723297 300.25578583 271.03450012 301.28831482 C273.79436092 307.96975926 276.49662489 314.67191185 279.16064453 321.39208984 C279.84590518 323.11341179 280.53128624 324.8346858 281.21679688 326.5559082 C282.19216507 329.00564569 283.16393954 331.4564884 284.12432861 333.91213989 C285.00428237 336.16077198 285.8973915 338.40374631 286.79345703 340.64599609 C287.04895828 341.31051788 287.30445953 341.97503967 287.56770325 342.65969849 C288.35166347 344.67493164 288.35166347 344.67493164 289.73486328 347.29052734 C293.48858028 348.54176634 294.39301386 347.86779995 297.96899414 346.34033203 C299.03697739 345.88946228 300.10496063 345.43859253 301.20530701 344.97406006 C302.35845901 344.47521301 303.51161102 343.97636597 304.69970703 343.46240234 C305.88456192 342.95759338 307.06941681 342.45278442 308.29017639 341.93267822 C310.80031381 340.86247406 313.3075289 339.78577635 315.81274414 338.70410156 C319.017328 337.32076298 322.22738954 335.95074396 325.43959713 334.58521652 C328.5080188 333.279379 331.57250959 331.96445772 334.63720703 330.64990234 C335.78833481 330.15915222 336.93946259 329.6684021 338.12547302 329.16278076 C339.19660843 328.69930237 340.26774384 328.23582397 341.37133789 327.75830078 C342.31271103 327.35335388 343.25408417 326.94840698 344.22398376 326.53118896 C346.64786437 325.33351475 348.63702531 323.98636447 350.73486328 322.29052734 C346.00007996 310.71064264 341.26373483 299.1313983 336.52514648 287.55307007 C334.46404598 282.51682566 332.40342395 277.48038705 330.34423828 272.44335938 C328.49075908 267.90953647 326.63582658 263.37631095 324.77978516 258.84353638 C324.0852274 257.1465557 323.39121366 255.44935227 322.69775391 253.75192261 C321.73239364 251.38919986 320.76511297 249.02727221 319.79736328 246.66552734 C319.3735437 245.62628868 319.3735437 245.62628868 318.94116211 244.5660553 C317.64675484 241.41257493 316.32092456 238.30940726 314.73486328 235.29052734 C312.39797021 235.29052734 311.13304788 235.888076 308.99804688 236.83178711 Z M235.66064453 269.42333984 C234.61505371 269.89328369 233.56946289 270.36322754 232.4921875 270.84741211 C231.35539551 271.36489014 230.21860352 271.88236816 229.04736328 272.41552734 C226.61960603 273.51200378 224.19136977 274.60733262 221.76220703 275.70068359 C221.12418152 275.98840134 220.48615601 276.27611908 219.82879639 276.57255554 C214.86382434 278.80384081 209.86972172 280.96160203 204.86376953 283.09912109 C203.39127784 283.73093436 201.91886507 284.36293157 200.4465332 284.99511719 C198.28265879 285.92416883 196.11763926 286.84974951 193.94766235 287.76446533 C191.92195394 288.61903594 189.9022665 289.48657764 187.88330078 290.35693359 C186.71976074 290.85136963 185.5562207 291.34580566 184.35742188 291.85522461 C181.43009659 293.07085616 181.43009659 293.07085616 180.73486328 296.29052734 C181.20294318 298.20860202 181.20294318 298.20860202 182.11157227 300.23486328 C182.44094788 301.03105072 182.77032349 301.82723816 183.10968018 302.64755249 C183.47970154 303.51457794 183.8497229 304.38160339 184.23095703 305.27490234 C184.61121033 306.18712555 184.99146362 307.09934875 185.38323975 308.03921509 C186.63762616 311.04335695 187.90504412 314.04182121 189.17236328 317.04052734 C190.03773674 319.10731465 190.90206753 321.17453881 191.76538086 323.2421875 C193.53891871 327.48857524 195.31641492 331.73327445 197.09619141 335.97705078 C200.73278527 344.66217489 204.30303377 353.37435459 207.86819458 362.08898926 C209.23778954 365.43647393 210.60980803 368.782963 211.98175049 372.12948608 C213.2334107 375.18291163 214.48418993 378.23669746 215.73486328 381.29052734 C230.42572092 375.25349263 245.0336703 369.03601237 259.60986328 362.72802734 C260.4437558 362.36733154 261.27764832 362.00663574 262.1368103 361.63500977 C264.52145189 360.60312174 266.90562904 359.57017093 269.28955078 358.53662109 C270.37395699 358.06693153 270.37395699 358.06693153 271.48027039 357.5877533 C275.13765781 356.00433395 275.13765781 356.00433395 278.73486328 354.29052734 C276.74606318 348.07017122 274.48939475 342.01651729 271.99658203 335.98193359 C271.63876144 335.10901169 271.28094086 334.23608978 270.91227722 333.3367157 C269.75179113 330.50765281 268.58713889 327.68032652 267.42236328 324.85302734 C266.61824221 322.89512111 265.81437086 320.9371123 265.01074219 318.97900391 C262.98023436 314.03368075 260.94616459 309.08983247 258.91070557 304.14654541 C257.78034959 301.4010096 256.65074646 298.65516559 255.52148438 295.90917969 C251.59756609 286.36758292 247.66931821 276.82778447 243.73486328 267.29052734 C240.36511629 267.29052734 238.71311633 268.03857443 235.66064453 269.42333984 Z M159.38725281 305.39762878 C158.58117081 306.20815201 157.77508881 307.01867523 156.94458008 307.85375977 C156.02400314 308.77448776 155.10342621 309.69521576 154.154953 310.6438446 C153.16455433 311.64445454 152.17426657 312.64517426 151.18408203 313.64599609 C150.16033514 314.67347664 149.13614318 315.7005139 148.11152649 316.72712708 C145.42579131 319.42047097 142.74611875 322.11976818 140.06768799 324.82037354 C137.32954145 327.57903814 134.5856712 330.3319968 131.84228516 333.08544922 C126.46754425 338.48159128 121.09919887 343.88403906 115.73486328 349.29052734 C120.4930606 363.36415344 126.00156149 377.09988458 131.60986328 390.85302734 C132.49823768 393.0397327 133.38626085 395.22658077 134.27392578 397.41357422 C136.42353437 402.70754046 138.57743709 407.9997425 140.73486328 413.29052734 C150.07125629 409.79647375 159.232447 405.98190365 168.35986328 401.97802734 C170.99064071 400.82660449 173.62218002 399.67694232 176.25439453 398.52880859 C177.21713539 398.10867493 177.21713539 398.10867493 178.19932556 397.68005371 C182.07155897 395.99615305 185.96006034 394.36133761 189.87158203 392.77099609 C190.75958496 392.40852783 191.64758789 392.04605957 192.5625 391.67260742 C194.17625912 391.01857359 195.7936262 390.37334748 197.41503906 389.73852539 C199.22334677 389.00341895 200.98594962 388.15751018 202.73486328 387.29052734 C204.14375688 383.06384655 202.38928516 380.37177007 200.71142578 376.47021484 C200.37843475 375.67475754 200.04544373 374.87930023 199.70236206 374.05973816 C198.59696277 371.42455115 197.47838805 368.79516677 196.35986328 366.16552734 C195.59129658 364.33968991 194.82373116 362.51343069 194.05712891 360.68676758 C192.44862098 356.85597238 190.83569989 353.02707641 189.22021484 349.19921875 C186.74105551 343.31599513 184.29210783 337.42052886 181.85205078 331.52099609 C181.46183746 330.57758362 181.07162415 329.63417114 180.66958618 328.66217041 C179.90057297 326.80228494 179.13170037 324.94234133 178.36297607 323.08233643 C176.56197601 318.72507191 174.75880064 314.36871487 172.95361328 310.01318359 C172.48445999 308.87854927 172.48445999 308.87854927 172.00582886 307.72099304 C170.45770707 303.96646735 170.45770707 303.96646735 168.73486328 300.29052734 C164.89526964 300.29052734 162.13846106 302.92827753 159.38725281 305.39762878 Z M94.73486328 334.29052734 C94.73486328 339.90052734 94.73486328 345.51052734 94.73486328 351.29052734 C96.46736328 349.92927734 96.46736328 349.92927734 98.23486328 348.54052734 C98.88455078 348.03005859 99.53423828 347.51958984 100.20361328 346.99365234 C102.18058843 345.17648439 102.18058843 345.17648439 101.73486328 341.29052734 C100.48826498 339.3106044 100.48826498 339.3106044 98.79736328 337.54052734 C98.25208984 336.92693359 97.70681641 336.31333984 97.14501953 335.68115234 C95.94627646 334.17350089 95.94627646 334.17350089 94.73486328 334.29052734 Z M104.73486328 360.29052734 C99.91204015 364.02813837 95.46314858 367.56968928 93.84100342 373.62994385 C93.58275217 377.45891851 93.60626248 381.21966853 93.75830078 385.04833984 C93.77699481 386.44647111 93.79120921 387.84466871 93.80117798 389.2428894 C93.83903304 392.89101892 93.93694223 396.53504993 94.04821777 400.18157959 C94.15124789 403.9152482 94.19634022 407.64959145 94.24658203 411.38427734 C94.35324619 418.68821244 94.52348136 425.98879183 94.73486328 433.29052734 C98.5290711 431.73415 102.31972711 430.16929112 106.10986328 428.60302734 C107.70121094 427.95043945 107.70121094 427.95043945 109.32470703 427.28466797 C115.94076957 424.54488747 122.3815917 421.59526046 128.73486328 418.29052734 C126.50861685 411.40835442 124.00543061 404.67636909 121.35595703 397.94677734 C120.94322037 396.89647339 120.5304837 395.84616943 120.10523987 394.76403809 C119.23841083 392.56172792 118.37022102 390.35995291 117.50073242 388.15869141 C116.16645604 384.77554915 114.8422147 381.38858183 113.51806641 378.00146484 C112.6729778 375.85799329 111.82729597 373.71475551 110.98095703 371.57177734 C110.58508896 370.55523071 110.18922089 369.53868408 109.78135681 368.49133301 C109.41079666 367.55946167 109.04023651 366.62759033 108.65844727 365.66748047 C108.17238258 364.43245789 108.17238258 364.43245789 107.67649841 363.17248535 C106.88180709 361.11409221 106.88180709 361.11409221 104.73486328 360.29052734 Z M387.29736328 373.72802734 C386.50060181 373.75009247 385.70384033 373.77215759 384.88293457 373.79489136 C373.15451585 374.12218989 361.44719436 374.58111472 349.73486328 375.29052734 C349.68264314 385.41329277 349.82495882 395.51139971 350.13720703 405.63037109 C350.17977384 407.05033509 350.2222158 408.47030284 350.26454163 409.89027405 C350.35301514 412.84071506 350.44312253 415.79110026 350.53442383 418.74145508 C350.6497614 422.47341308 350.76073316 426.20548592 350.87042904 429.93761349 C350.95694286 432.86265288 351.045943 435.78761293 351.13562202 438.71255684 C351.19738511 440.74159148 351.25705109 442.77068963 351.31663513 444.79978943 C351.6050902 453.97863528 352.11523256 463.1293276 352.73486328 472.29052734 C359.40203163 472.17124496 366.06908267 472.04648865 372.73608398 471.91821289 C374.99647797 471.87533366 377.2568947 471.83363385 379.51733398 471.79321289 C385.95398539 471.67768691 392.38952831 471.54221772 398.82489014 471.36846924 C400.68793545 471.31856868 402.55109686 471.27273423 404.41436768 471.2321167 C406.7632692 471.17644846 409.10973045 471.09567508 411.45751953 471.00537109 C412.73506104 470.96404053 414.01260254 470.92270996 415.32885742 470.88012695 C420.35232102 470.01053591 423.38645375 467.94444145 426.58935547 464.01586914 C428.05468329 460.52962565 428.12848071 457.40010439 428.06298828 453.68505859 C428.0615683 452.94033295 428.06014832 452.1956073 428.0586853 451.42831421 C428.04951726 448.98617946 428.01794606 446.54494638 427.98486328 444.10302734 C427.97155726 442.40487242 427.95903415 440.7067112 427.94726562 439.00854492 C427.90341911 433.76870093 427.82301977 428.52978872 427.73486328 423.29052734 C427.72177124 422.46161987 427.7086792 421.6327124 427.69519043 420.77868652 C427.6197333 416.07488064 427.52854575 411.3718019 427.41345215 406.66879272 C427.37809978 405.22355341 427.34493032 403.77825883 427.31408691 402.33291626 C427.56997205 389.61410036 427.56997205 389.61410036 423.11376953 378.13427734 C422.51435547 377.69083984 421.91494141 377.24740234 421.29736328 376.79052734 C420.70052734 376.32646484 420.10369141 375.86240234 419.48876953 375.38427734 C416.52563278 373.53644151 414.03898334 373.16530661 410.63720703 373.20068359 C409.74759277 373.20986816 408.85797852 373.21905273 407.94140625 373.22851562 C401.05897507 373.36161579 394.17829541 373.53382885 387.29736328 373.72802734 Z M328.72460938 375.47412109 C326.83287491 375.53418335 326.83287491 375.53418335 324.90292358 375.59545898 C323.52138243 375.63964169 322.1398415 375.68383131 320.75830078 375.72802734 C319.34868455 375.77289547 317.93906744 375.8177356 316.52944946 375.86254883 C312.81733316 375.98063634 309.10522911 376.09910479 305.39312744 376.21765137 C301.60600502 376.33852667 297.81887118 376.45904337 294.03173828 376.57958984 C286.59943537 376.81621714 279.16714536 377.0532467 271.73486328 377.29052734 C271.68264314 387.41329277 271.82495882 397.51139971 272.13720703 407.63037109 C272.17977384 409.05033509 272.2222158 410.47030284 272.26454163 411.89027405 C272.35301514 414.84071506 272.44312253 417.79110026 272.53442383 420.74145508 C272.6497614 424.47341308 272.76073316 428.20548592 272.87042904 431.93761349 C272.95694286 434.86265288 273.045943 437.78761293 273.13562202 440.71255684 C273.19738511 442.74159148 273.25705109 444.77068963 273.31663513 446.79978943 C273.6050902 455.97863528 274.11523256 465.1293276 274.73486328 474.29052734 C285.52780564 474.33767323 296.30196473 474.21550875 307.09082031 473.91821289 C309.49681989 473.85270179 311.90292139 473.79315056 314.30908203 473.73388672 C322.81706678 473.51179993 331.25934208 473.11123108 339.73486328 472.29052734 C339.78768826 462.08385256 339.64243236 451.8995346 339.33251953 441.69677734 C339.28996143 440.25199715 339.24751921 438.80721353 339.20518494 437.36242676 C339.11670145 434.36071227 339.02658699 431.35905245 338.93530273 428.35742188 C338.81985744 424.55586427 338.70893405 420.75419026 338.59929752 416.95246124 C338.512902 413.97684739 338.42386388 411.00131672 338.33410454 408.02580261 C338.29221361 406.62593565 338.2511393 405.22604395 338.21098518 403.8261261 C337.93579998 394.29251312 337.43062179 384.80122702 336.73486328 375.29052734 C334.06218833 375.29052734 331.39600076 375.38897715 328.72460938 375.47412109 Z M249.39404297 380.38256836 C248.32482605 380.84047256 247.25560913 381.29837677 246.1539917 381.77015686 C244.99989807 382.27316818 243.84580444 382.7761795 242.65673828 383.29443359 C240.85768036 384.06858864 240.85768036 384.06858864 239.02227783 384.85838318 C235.82316574 386.23516727 232.62790812 387.62068499 229.43334961 389.00799561 C226.2419113 390.39207853 223.04680756 391.76764177 219.85205078 393.14404297 C207.46211652 398.48585531 195.08702933 403.86192239 182.73486328 409.29052734 C182.55830142 421.07047348 183.03530523 432.81286923 183.53442383 444.57983398 C183.67337736 447.87709069 183.80493284 451.17459079 183.93603516 454.47216797 C184.02348227 456.57960829 184.11135729 458.68703092 184.19970703 460.79443359 C184.25758644 462.26475792 184.25758644 462.26475792 184.31663513 463.76478577 C184.3566011 464.68021652 184.39656708 465.59564728 184.43774414 466.53881836 C184.4877079 467.73789574 184.4877079 467.73789574 184.53868103 468.9611969 C184.74918462 471.46056893 185.199746 473.84183703 185.73486328 476.29052734 C202.72195437 476.40988319 219.69033409 476.29920262 236.67236328 475.85302734 C237.46822845 475.83337921 238.26409363 475.81373108 239.08407593 475.79348755 C241.37277335 475.73593649 243.66122677 475.67250537 245.94970703 475.60693359 C247.26060303 475.57027588 248.57149902 475.53361816 249.92211914 475.49584961 C253.90886411 475.28115713 257.78084863 474.83097254 261.73486328 474.29052734 C261.78777264 464.07217104 261.64209705 453.87607362 261.33251953 443.66162109 C261.28996601 442.21444513 261.24752367 440.76726589 261.20518494 439.32008362 C261.11670938 436.31417278 261.02658922 433.30831698 260.93530273 430.30249023 C260.81975223 426.4918686 260.70887271 422.68112741 260.59929752 418.87032986 C260.51299852 415.89046446 260.42393019 412.91068635 260.33410454 409.93092537 C260.29215983 408.52744235 260.25108579 407.12393297 260.21098518 405.72039604 C259.94731524 396.55126124 259.46097271 387.43414188 258.73486328 378.29052734 C254.72563173 378.29052734 252.99018932 378.82841595 249.39404297 380.38256836 Z M160.50439453 418.77099609 C159.65378952 419.13575043 158.80318451 419.50050476 157.92680359 419.87631226 C155.1328636 421.07504574 152.34008545 422.2764597 149.54736328 423.47802734 C147.63594527 424.2990034 145.72448677 425.11988518 143.81298828 425.94067383 C132.27995438 430.89524236 120.75325741 435.86451734 109.23486328 440.85302734 C108.60021149 441.127789 107.96555969 441.40255066 107.31167603 441.68563843 C100.97053711 444.37369687 100.97053711 444.37369687 94.73486328 447.29052734 C94.71504395 447.86907471 94.69522461 448.44762207 94.67480469 449.04370117 C94.57803576 451.73050903 94.46898989 454.41669408 94.35986328 457.10302734 C94.32892578 458.01246094 94.29798828 458.92189453 94.26611328 459.85888672 C94.22744141 460.77089844 94.18876953 461.68291016 94.14892578 462.62255859 C94.10179443 463.85582886 94.10179443 463.85582886 94.05371094 465.11401367 C93.57424258 469.89070797 92.63795631 474.57804208 91.73486328 479.29052734 C118.74217298 478.80412108 145.7414264 478.30157387 172.73486328 477.29052734 C172.47305718 469.90713333 172.20597219 462.5239435 171.93530273 455.14086914 C171.84393147 452.63179804 171.7537466 450.12268343 171.66479492 447.61352539 C171.53636294 443.99662237 171.40359522 440.37989987 171.27001953 436.76318359 C171.23143326 435.65032486 171.19284698 434.53746613 171.15309143 433.3908844 C170.92390504 427.30986514 170.49211726 421.32914239 169.73486328 415.29052734 C166.80174237 415.29052734 163.22921868 417.59736342 160.50439453 418.77099609 Z " fill="#4159EE" transform="translate(49.26513671875,9.70947265625)"/>
<path d="M0 0 C3 2 3 2 4 5 C4.08765288 6.96094116 4.11461064 8.92480519 4.10864258 10.88769531 C4.10708664 12.10269714 4.1055307 13.31769897 4.10392761 14.56951904 C4.09685466 15.90572224 4.08954904 17.24192423 4.08203125 18.578125 C4.07749802 19.96950186 4.07325641 21.36087971 4.06929016 22.7522583 C4.05687516 26.42868525 4.03687844 30.10502792 4.01386261 33.78140259 C4.00032737 35.9476072 3.98807639 38.11381605 3.97601318 40.2800293 C3.93093818 47.99404629 3.86285665 55.70748807 3.76426506 63.42101288 C3.71876564 66.99159509 3.67952153 70.56202983 3.65356445 74.1328125 C3.6276349 77.68304764 3.58743406 81.2328478 3.53681374 84.78281403 C3.51224971 86.7542616 3.50214273 88.72587243 3.49235535 90.69744873 C3.47256119 91.87849182 3.45276703 93.05953491 3.43237305 94.27636719 C3.41571846 95.8315506 3.41571846 95.8315506 3.39872742 97.41815186 C2.94403111 100.36241093 2.34556218 101.23443064 0 103 C-1.875 103.875 -1.875 103.875 -4 104 C-8.63076923 101.73846154 -8.63076923 101.73846154 -10 99 C-10.09613959 97.20909117 -10.12795965 95.41458064 -10.12939453 93.62109375 C-10.1324913 92.48862717 -10.13558807 91.35616058 -10.13877869 90.18937683 C-10.13680984 88.95125748 -10.134841 87.71313812 -10.1328125 86.4375 C-10.13426773 85.15446487 -10.13572296 83.87142975 -10.13722229 82.54951477 C-10.14023434 79.08189207 -10.1360095 75.61431793 -10.12917709 72.14670181 C-10.12501507 70.00774426 -10.12205004 67.86878767 -10.11929321 65.72982788 C-10.07124156 32.90116388 -10.07124156 32.90116388 -9.73553467 18.4284668 C-9.70368746 17.02557096 -9.67649462 15.62256121 -9.65411377 14.21948242 C-9.62169771 12.3295973 -9.56745079 10.44012255 -9.51171875 8.55078125 C-9.48553467 7.53669189 -9.45935059 6.52260254 -9.43237305 5.4777832 C-8.45954486 -0.09716499 -5.14098634 -0.53551941 0 0 Z " fill="#4159EE" transform="translate(57,171)"/>
<path d="M0 0 C5.07874083 2.83237469 8.83244002 6.49386804 11.25 11.8125 C12.86755916 18.18319452 12.53563135 24.03902638 9.25 29.8125 C5.30997822 34.1866614 1.60209812 37.56097171 -4.45703125 38.015625 C-11.24408881 38.11807115 -16.22127309 38.187804 -21.3671875 33.265625 C-25.62165318 28.6651023 -27.48919292 24.68137793 -28.0625 18.375 C-27.46430159 11.55553812 -24.54593268 6.60843268 -19.75 1.8125 C-13.14603445 -1.99748012 -7.14157024 -2.26149724 0 0 Z M-12.6875 13.9375 C-15.0050222 16.57826966 -15.0050222 16.57826966 -14.75 19.4375 C-13.66546902 22.01326108 -13.09108221 23.27868752 -10.75 24.8125 C-7.56350376 25.21081203 -5.6279472 25.41798083 -2.9375 23.5625 C-1.53795 21.50000526 -0.89735516 20.31753771 -0.75 17.8125 C-1.68803782 15.0265989 -1.68803782 15.0265989 -3.75 12.8125 C-7.86360199 11.20282966 -9.07621267 11.32507938 -12.6875 13.9375 Z " fill="#4159EE" transform="translate(87.75,440.1875)"/>
<path d="M0 0 C2.97283733 4.459256 2.36827788 8.69088435 2.375 13.9375 C2.39949219 14.93974609 2.42398438 15.94199219 2.44921875 16.97460938 C2.47855629 24.30410365 2.47855629 24.30410365 0.16796875 27.6640625 C-2.76948118 29.47416678 -4.61235057 29.50454353 -8 29 C-9.66088867 27.79882812 -9.66088867 27.79882812 -11 26 C-11.37231445 23.59570312 -11.37231445 23.59570312 -11.36328125 20.78125 C-11.36263672 19.76675781 -11.36199219 18.75226563 -11.36132812 17.70703125 C-11.34521484 16.64871094 -11.32910156 15.59039062 -11.3125 14.5 C-11.31572266 13.44167969 -11.31894531 12.38335937 -11.32226562 11.29296875 C-11.26710975 3.40066463 -11.26710975 3.40066463 -9 0 C-5.46474216 -1.17841928 -3.5797952 -0.91399027 0 0 Z " fill="#4159EE" transform="translate(59,132)"/>
</svg>
